<svg id="Layer_1" data-name="Layer 1" xmlns="http://www.w3.org/2000/svg" viewBox="0 0 23.11 4.64"><defs><style>.cls-1{fill:#231f20;}</style></defs><title>sswatch</title><path class="cls-1" d="M2.42,1.33A0.91,0.91,0,0,0,1.74,1a0.55,0.55,0,0,0-.63.44c0,0.77,2,.28,2,1.76a1.44,1.44,0,0,1-1.64,1.4A2,2,0,0,1,0,4.11l0.67-.73a1,1,0,0,0,.82.4,0.57,0.57,0,0,0,.65-0.44c0-.78-2-0.36-2-1.77A1.46,1.46,0,0,1,1.76.18a1.92,1.92,0,0,1,1.3.44Z"/><path class="cls-1" d="M5.06,2.48a0.64,0.64,0,0,0-.52-0.25,0.29,0.29,0,0,0-.33.24c0,0.43,1.52.07,1.52,1.18a1.12,1.12,0,0,1-1.34,1,1.6,1.6,0,0,1-1.15-.4L3.78,3.6a0.78,0.78,0,0,0,.64.32c0.2,0,.41-0.05.41-0.21,0-.47-1.52-0.07-1.52-1.18a1.07,1.07,0,0,1,1.22-1,1.47,1.47,0,0,1,1.08.38Z"/><path class="cls-1" d="M5.72,1.62h1L7.27,3.45h0l0.5-1.83h1L9.3,3.45h0L9.86,1.62h0.91l-1,2.91H8.85L8.24,2.6h0L7.69,4.53H6.79Z"/><path class="cls-1" d="M12.65,4.17h0a1.05,1.05,0,0,1-.92.44,0.93,0.93,0,0,1-1-.9c0-1,1.22-1,2-1a0.54,0.54,0,0,0-.58-0.52,1,1,0,0,0-.73.35L10.87,2a1.88,1.88,0,0,1,1.28-.47c1,0,1.33.53,1.33,1.51V4.53H12.65V4.17Zm-0.22-.91c-0.28,0-.89,0-0.89.42A0.38,0.38,0,0,0,12,4a0.6,0.6,0,0,0,.68-0.55V3.26H12.43Z"/><path class="cls-1" d="M15.79,2.34H15v1c0,0.31,0,.54.43,0.54a0.65,0.65,0,0,0,.37-0.08V4.52a1.86,1.86,0,0,1-.63.09,0.89,0.89,0,0,1-1.06-.88V2.34H13.52V1.62H14.1V0.76H15V1.62h0.79V2.34Z"/><path class="cls-1" d="M18.1,2.56a0.56,0.56,0,0,0-.44-0.22,0.68,0.68,0,0,0-.72.74,0.68,0.68,0,0,0,.72.74,0.57,0.57,0,0,0,.44-0.22l0.59,0.62a1.46,1.46,0,0,1-1,.39,1.53,1.53,0,1,1,0-3.06,1.46,1.46,0,0,1,1,.39Z"/><path class="cls-1" d="M19.8,0V2h0a0.84,0.84,0,0,1,.82-0.47c0.91,0,1.08.6,1.08,1.38V4.53h-0.9V3.11c0-.34,0-0.77-0.47-0.77s-0.54.37-.54,0.74V4.53H18.9V0h0.9Z"/><path class="cls-1" d="M22.55,3.47A0.55,0.55,0,1,1,22,4,0.55,0.55,0,0,1,22.55,3.47Z"/></svg>