<svg id="Layer_1" data-name="Layer 1" xmlns="http://www.w3.org/2000/svg" viewBox="0 0 153.58 160.85"><defs><style>.cls-1{fill:#192753;}.cls-2{fill:#7c6e66;}.cls-3{fill:#91897a;}.cls-4{fill:#e1c0dc;}.cls-5{fill:#e1d6ea;}.cls-6{fill:#b57eae;}.cls-7{fill:#fff;}.cls-8{fill:#c7718e;}</style></defs><title>sassquatch</title><path class="cls-1" d="M5.23,106.49s24.89,50.43,57.63,50.43,62.22-8.51,69.42-24.23S61.56,118.28,60.9,117.62,13.75,88.8,13.75,88.8Z"/><path class="cls-2" d="M133.27,117.95l-7.2-10.48-26.2-20.3S90,57.69,94,57.69,114,75.05,119.19,77,132.29,66.54,133.6,62s2.62-17.68,2-21-8.51-26.2-11.13-28.82S115.92,5,115.92,5V20.69l-7.86-7.2s-8.51,14.41-9.17,16.37-11.13.65-11.13.65L90.37,24S74,28.55,70.07,29.2s-5.89-6.55-28.16,8.51C23.39,50.25,9.4,92.22,5.22,106c-.85,2.79,8.82-15.44,8.53-13.26-1.31,9.82-9.82,11.79,15.72,24.89A84.77,84.77,0,0,1,39,124.74c-1.68,0-7.57,1.4-12.81-2.53C24.53,121,27.5,131.37,35.36,136c4.68,2.73,23.56,11.81,36.91,7.87,8.93-2.63-5.48,6.54-5.48,6.54,2,2.62,21.14,1.93,24.23,1.31,8.51-2,18-13.12,22.27-13.75,13.1-2,16.37-1.31,16.37-1.31l6.22-6.88Z"/><path class="cls-3" d="M123.65,114.35s-14.64.82-16.9,4.58c-2,3.27,4.83-1,0,2.62-2.62,2,1.31,9.17-7.86,8.51-2.07-.15-5.89,7.2-15.72,3.27-4.75-1.9-3.93-2.62-6.22-2.95-4.1-.59-10.17,2.64-16.7-1-8.84-4.91-9.17-11.79-9.17-11.79s5.57.33,6.88-1-7.55-2.83-13.43-5.57c-9.82-4.58-12.77-11.46-12.77-18,0,0,2,3.93,5.24,2.62s.65-3.27-.65-7.86,1.31-5.89,1.31-5.89S39,87.17,41.58,85.2s1.06-20,3.27-26.2c2.95-8.19,7.32-12.93,15.39-16.7C75,35.43,89.72,46.23,97.58,43c3.26-1.36,12.77-9.5,12.12-12.77s4.58,9.17,2,14.41,1.31,5.89,2.62,4.58,3.93-7.86,3.27-10.48,5.89,5.89,5.89,11.13,3.27.65,3.27.65S126.94,80.4,109.15,70,111.4,114.67,123.65,114.35Z"/><path class="cls-4" d="M111.33,73.74s-15.06-18.34-26.85-17S59.59,62.61,57.63,71.78s-7.86,17-5.89,19.65,11.79,1.31,11.79,1.31l-7.86,9.17s4.58,3.27,4.58,2.62,7.2-4.58,7.2-4.58-4.58,11.13-3.93,11.13h7.86l-3.93,7.86,5.89,2.62,7.86-5.24v6.55l3.93,1.31,5.24-4.58,2,5.89,2,2,4.58-7.86,4.58,6.55,2.62-7.2,7.86,6.55,2-5.89,5.89,2V113l4.58,3.27,2-5.24-2-4.58a20,20,0,0,0-4.91-1c-2,0-3.27,2-5.24-3.27s-.65-14.41.65-17.68a43,43,0,0,0,2-8.51Z"/><path class="cls-5" d="M108.06,78.32C98.89,73.74,94,69,82.52,65.88c-7.2-2-15.06,3.27,1.31,16.37,15.1,12.08,1.31,41.92,1.31,41.92l5.24-4.58,2,5.89,2,2,4.58-7.86,4.58,6.55,2.62-7.2,7.86,6.55,2-5.89,5.89,2V113l4.58,3.27,2-5.24-2-4.58a20,20,0,0,0-4.91-1c-2,0-3.27,2-5.24-3.27s-.65-14.41.65-17.68a26.65,26.65,0,0,0,1.64-6.22S117.23,82.91,108.06,78.32Z"/><path class="cls-6" d="M68.11,80.29c0-.65,7.86-3.93,12.44-.65,1.19.85,24.89,9.17,29.47,6.55s-2-2-2-2L93,78.32s-10.48-5.24-14.41-5.24-8.51,2-9.17,2.62S68.11,80.29,68.11,80.29Z"/><path class="cls-6" d="M112,102.56c-.31.85-3,5.49-7.2,3.93s-3.93-4.58-7.36-7.08a40.82,40.82,0,0,0,7.36,3.8C109,104.77,112.3,101.71,112,102.56Z"/><circle class="cls-7" cx="87.76" cy="82.25" r="3.93"/><circle class="cls-7" cx="113.3" cy="87.49" r="2.62"/><ellipse class="cls-8" cx="75.31" cy="91.1" rx="3.6" ry="4.58" transform="translate(-41.87 106.52) rotate(-57.92)"/><path class="cls-1" d="M141.68,43l-.11.07c-1.25-6.72-4.74-14.46-11.33-24-9-13-12.08-18.26-15.58-19a2.11,2.11,0,0,0-2,.69,2.85,2.85,0,0,0-.55,2.75c2.87,8.85,3,12.3,2.57,13a1.63,1.63,0,0,1-.48-.21,29.8,29.8,0,0,1-2.09-3c-3.38-5.12-5-7.3-6.58-6.68-1.25.5-1.2,2.29-.72,5a7.68,7.68,0,0,1,.1,1A76.79,76.79,0,1,0,141.68,43Zm-4.89,73.69c-1.54-12.55-14.84-13.33-16.72-13.44-2.21-2.25-3.59-6.12-2.34-14.58,1.51-3.9,3.39-8,3.26-9.45a4.59,4.59,0,0,0,.16-.87.46.46,0,0,0-.11-.26,29.16,29.16,0,0,0,15.83-12.19,38.26,38.26,0,0,0,4.55-11,70.88,70.88,0,0,1-4.56,66.77A14.36,14.36,0,0,0,136.79,116.67Zm-15.35,2.22c-.3.3-2.2-.23-2.91-.62a10.87,10.87,0,0,0-3.27-1.31c-.65,0,0,6.55-1,6.61s-2.34-2.74-4.89-5.3a2.85,2.85,0,0,0-3.1-.69.27.27,0,0,0-.21.2l-.73,3.1c-.22.94-1.86.66-2.51-.65s-1.84-2.62-3.27-2.62c-.65,0-2.62,5.89-4.58,6.55-.32.11-.62-1.92-.65-2.62-.14-2.5-1.2-4.5-4.39-4.58a.28.28,0,0,0-.26.18,28.4,28.4,0,0,1-1.13,2.63c-.43.81-2.32,2.51-3.41,2.15s-.84-2.68-.69-4.38a10.59,10.59,0,0,0,0-2.74c-.24-1.2-.63-2.46-1.71-2.65s-1.93,1-2.72,2.33c-1.45,2.41-7.34,5.75-9.16,3.46-.23-.29,1.34-2.48,1.82-3a7.53,7.53,0,0,0,1.17-9.16l-.16-.26a.72.72,0,0,0-1.08-.18l-.23.19c-2.47,2-3.63,1.55-3.63,1.55A22.42,22.42,0,0,1,70.56,104a6.2,6.2,0,0,0,.66-6.2c-.51-1-1.14-1.11-1.47-1.11s-.54.12-1.24.65a28.78,28.78,0,0,1-8,4.51.72.72,0,0,1-.63-1.28c1.16-.81,2.35-1.59,3.12-2.1s1.69-1.12,2.15-1.45a5.44,5.44,0,0,0,1.52-7.86l-.52-.71-.76.43c-1.82,1-7.47,3.58-9.57,1.82-1.4-1.18-1.23-4.5.5-9.35C62.53,63.78,78.86,58,84,58.82c3.71.57,11.47,2.95,21.75,12.55,4.24,4,8.24,6.55,11.89,7-.53,1.77-1.28,5.22-7,5.22-7.23,0-24.23-13.1-33.4-13.1-7.25,0-12,6.14-13.73,8.71a2,2,0,0,0,.09,2.35c3,3.83,6.19-4.67,11-6.48,1.3-.49,3.82-.91,8.5.66-2,1.28-3.59,3.36-3.59,5.57,0,3.61,3.3,8.51,6.55,8.51a7.78,7.78,0,0,0,8.19-7.53,5.71,5.71,0,0,0-.17-1.35,43,43,0,0,0,14,4.14,48.06,48.06,0,0,1,2.18,7c1,4.66,1.6,1.4,1.6-.47,0-.13,0-.26,0-.39a1.06,1.06,0,0,0,.73.27,1.18,1.18,0,0,1,.75.37c.11,1.68.33,4.44.73,7.34.83,5.88,2,9.71,3.61,11.41-2.57,1.51-6.37,2.82-12,2.82-13.1,0-25.54-17-25.54-17-.65-.65-.65,0-.65,0a5.11,5.11,0,0,1,0,3.27,3.21,3.21,0,0,0-.33,2.29s4.08,5,6.55,6.55c3.6,2.29,10.48,7.86,21,7.86,9.08,0,14.72-5.9,16.49-7.9,1.33-.53,3.77.8,3.81,5.17,0,.1,0,.19-.06.29l-.23-.22s-2.33-3.24-5.61-1.93C120.63,111.94,121.76,118.57,121.44,118.89Zm-6.51-31.4a1.34,1.34,0,1,1-1.31-1.64A1.5,1.5,0,0,1,114.93,87.49ZM91,81.93a3,3,0,1,1-2.95-3.44A3.22,3.22,0,0,1,91,81.93ZM76.79,13.16a70.42,70.42,0,0,1,26.63,5.17,23.14,23.14,0,0,1-2.65,3.92A35,35,0,0,1,94.2,28.3a.72.72,0,0,1-1.08-.85c1.61-3.86,1.89-8.16,1.18-9.37a1.16,1.16,0,0,0-1.14-.61c-.79.09-1.16.9-1.42,1.68-.88,2.69-8.08,3.91-19,5.76-2.71.46-11.83,1.08-15.14,1.68-16.3,3-25.62,17.14-36,32.75A255.86,255.86,0,0,0,6,87.15c0-1-.07-2.06-.07-3.09A71,71,0,0,1,76.79,13.16Zm0,141.79A71,71,0,0,1,9.66,106.87a1.13,1.13,0,0,0,.16-.39C13.05,92,25.28,66.74,30.12,58c6.55-11.79,20.3-26.2,33.4-26.2,11.6,0,12.82-2.92,21.11-5.1,1.51-.4,2.08.38,1.23,1.69a12.85,12.85,0,0,1-1.71,2.09c-1.31,1.31,3.63,4.33,9.17,3.27,6.88-1.31,12.12-6.55,14.08-14.41.57-2.3,3.93-.65,5.24,1.31,1.57,2.35,2.62,3.27,5.89,2,.61-.24,5.57-.65,0-13.1-.15-.33,3.3-.58,9.82,13.75,8.31,18.26,8.42,26.85,1.44,38.77-3.76,6.44-7.44,8.48-11.27,9-3.59.52-8.45-3.51-13.1-7.86-10.66-10-20.3-11.19-24.23-11.79-5.78-.88-23.72,11.2-30.45,30.13-2.11,5.93-2.5,10-.33,11.79,2.76,2.31,3.93,2.62,7.2,2,.3-.06,6.25-2.15,1.64,1.31a81.05,81.05,0,0,1-7.33,5.13.27.27,0,0,0-.12.33c2.7,6.9,10.3,3.37,13.34,1.09,2.62-2,1,2-1.64,3.93-1.32,1-4.42,3-4.26,3.93a3,3,0,0,0,1.31,2c2,1.31,6.36,1.17,8.19-.65.64-.64.38,2.82-3.67,5.1-.16.09.64,3.57,2.36,4.72,3.93,2.62,9.87,2.23,11.79-.65a10.57,10.57,0,0,1,1.3-1.59.29.29,0,0,1,.46.3c-1.1,3.36-.9,5.46,2.82,6.52,3.21.92,4.93-3,5.89-3.93,1.75-1.77,1.31.45,1.31,1.31,0,4.58,0,4.58,3.27,4.58,3.93,0,3.06-5.24,5.89-5.24a2.33,2.33,0,0,1,2,1.48v0c.15.73.59,2.88,2.09,2.91a2,2,0,0,0,1.78-1.58c.09-.34.66-3.75,1.28-4.73a.27.27,0,0,1,.17-.11c3.2-.67,3.23,6.49,9,5.29a1.53,1.53,0,0,0,1.16-1.81c-.23-1.12-.3-2.14.89-2.14a17.08,17.08,0,0,0,5.24,0c.17,0,1.57-1.82.65-5.24-.82-3.05,1.88.85,3.93,0,.42-.17.15-2.67.35-3.65a.54.54,0,0,1,1-.06c.19.56.39,1.23.61,2a21.71,21.71,0,0,1-.94,15,.71.71,0,0,0,0,.55A70.73,70.73,0,0,1,76.79,155Z"/><path class="cls-1" d="M98.23,105.18c1.58-.26-.6-2.3-.29-2.78a1.94,1.94,0,0,1,.68-.68c1.36-.68,2.72,2.72,4.09,4.09s3.41.68,2.72.68-4.09-4.77-4.77-6.13-3.41-2.72-4.77-.68,1.36,4.77,1.36,4.77S97.87,105.24,98.23,105.18Z"/><path class="cls-1" d="M108.71,106.49c1.31,1.31,2.62-1.31,3.27-1.31s0,1.31,1.31,0-.65-3.93-1.31-2S108.71,106.49,108.71,106.49Z"/><path class="cls-1" d="M100.82,97.64a13.86,13.86,0,0,1,1.72,1.11c1.86,1.31,4.47,3.16,6.79,3.16a3.63,3.63,0,0,0,1.84-.47,1,1,0,0,0-1-1.71c-1.58.9-2.79,1.51-6.52-2.59-1.25-1.37-2.21-1.54-2.91-1.47a1,1,0,0,0,.06,2Z"/></svg>