<svg id="Layer_1" xmlns="http://www.w3.org/2000/svg" viewBox="0 0 349.3 81.2"><style>.st0{fill:#141414}</style><path class="st0" d="M8.4 18.4c0-2 .7-3.7 2.1-5.1 1.4-1.4 3.1-2.1 5.1-2.1 2 0 3.7.7 5.1 2.1 1.4 1.4 2.1 3.1 2.1 5.1 0 2-.7 3.7-2.1 5.1-1.4 1.4-3.1 2.1-5.1 2.1-2 0-3.7-.7-5.1-2.1-1.4-1.4-2.1-3.1-2.1-5.1zm1 12.7h12.5v40.5H9.4V31.1zm16.9 0h12v5.5h.2c.4-.8.9-1.6 1.7-2.3.7-.8 1.6-1.5 2.6-2.1 1-.6 2.1-1.1 3.4-1.5 1.3-.4 2.7-.6 4.2-.6 3.2 0 5.7.5 7.7 1.5 1.9 1 3.5 2.3 4.5 4 1.1 1.7 1.8 3.7 2.2 6.1.4 2.3.6 4.9.6 7.6v22.3H52.7V51.7c0-1.2 0-2.4-.1-3.6-.1-1.2-.3-2.4-.7-3.5-.4-1.1-1.1-1.9-1.9-2.6-.9-.7-2.1-1-3.7-1s-2.9.3-3.9.9c-1 .6-1.8 1.4-2.3 2.3-.5 1-.9 2.1-1 3.3-.2 1.2-.3 2.5-.3 3.8v20.1H26.3V31.1zm84.6 40.4H99.4v-5.3h-.2c-.5.7-1.2 1.5-2 2.2-.8.7-1.7 1.4-2.8 2-1.1.6-2.3 1.1-3.6 1.5-1.3.4-2.6.6-4 .6-3 0-5.7-.5-8.2-1.5-2.4-1-4.5-2.5-6.3-4.3-1.7-1.9-3.1-4.1-4-6.6-.9-2.6-1.4-5.4-1.4-8.4 0-2.8.4-5.5 1.3-8.1.9-2.6 2.1-4.9 3.7-6.9s3.5-3.6 5.8-4.8c2.3-1.2 4.9-1.8 7.7-1.8 2.6 0 5 .4 7.3 1.2 2.2.8 4.1 2.2 5.5 4.1h.2V8.6h12.5v62.9zM99.4 51.3c0-3.1-.9-5.5-2.6-7.4-1.7-1.9-4.2-2.8-7.4-2.8s-5.6.9-7.4 2.8c-1.7 1.9-2.6 4.4-2.6 7.4 0 3.1.9 5.5 2.6 7.4 1.7 1.9 4.2 2.8 7.4 2.8s5.6-.9 7.4-2.8c1.8-1.9 2.6-4.3 2.6-7.4zm54.1 20.2h-12V66h-.2c-.4.8-1 1.6-1.7 2.3-.7.8-1.5 1.5-2.5 2.1-1 .6-2.1 1.1-3.4 1.5-1.3.4-2.7.6-4.2.6-3.2 0-5.7-.5-7.7-1.5s-3.5-2.3-4.6-4c-1.1-1.7-1.8-3.7-2.2-6.1-.4-2.3-.5-4.9-.5-7.6V31.1H127v19.8c0 1.2 0 2.4.1 3.6.1 1.2.3 2.4.7 3.5.4 1.1 1.1 1.9 1.9 2.6.9.7 2.1 1 3.7 1s2.9-.3 3.9-.9c1-.6 1.8-1.4 2.3-2.3.5-1 .9-2.1 1-3.3.2-1.2.2-2.5.2-3.8V31.1h12.5v40.4zM180.7 43c-1.8-2.3-4.2-3.4-7.2-3.4-1.1 0-2.1.2-3.1.7-1 .5-1.5 1.4-1.5 2.6 0 1 .5 1.7 1.5 2.2 1 .5 2.3.9 3.9 1.2 1.6.4 3.3.8 5.1 1.2 1.8.4 3.5 1.1 5.1 2 1.6.9 2.9 2.1 3.9 3.6s1.5 3.6 1.5 6.1c0 2.6-.6 4.8-1.7 6.5-1.1 1.7-2.6 3.1-4.4 4.1-1.8 1-3.8 1.7-6 2.2-2.2.4-4.4.6-6.6.6-2.8 0-5.7-.4-8.6-1.2-2.9-.8-5.3-2.2-7.3-4.3l7.6-8.4c1.2 1.4 2.5 2.5 3.9 3.3 1.4.7 3.1 1.1 5 1.1 1.4 0 2.7-.2 3.9-.6 1.2-.4 1.8-1.2 1.8-2.3 0-1.1-.5-1.8-1.5-2.4-1-.5-2.3-1-3.9-1.3-1.6-.4-3.3-.8-5.1-1.2-1.8-.4-3.5-1-5.1-1.9-1.6-.8-2.9-2-3.9-3.5s-1.5-3.6-1.5-6.1c0-2.4.5-4.4 1.5-6.2 1-1.7 2.2-3.1 3.8-4.2 1.6-1.1 3.4-1.9 5.5-2.5 2.1-.5 4.1-.8 6.2-.8 2.7 0 5.4.4 8.1 1.2 2.7.8 5 2.2 6.9 4.2l-7.8 7.5z"/><path class="st0" d="M219.3 41.1h-11v13.5c0 1.1.1 2.1.2 3 .1.9.4 1.7.8 2.4s1 1.2 1.8 1.5c.8.4 1.9.5 3.2.5.7 0 1.5-.1 2.6-.2s1.9-.5 2.5-1v10.4c-1.4.5-2.8.8-4.3 1-1.5.2-3 .2-4.4.2-2.1 0-4.1-.2-5.8-.7-1.8-.4-3.3-1.1-4.7-2.1-1.3-1-2.4-2.2-3.1-3.8-.7-1.6-1.1-3.4-1.1-5.7v-19h-8v-10h8v-12h12.5v12h11v10zm2.6-10h12.5v6.5h.2c1.3-2.5 2.9-4.4 4.7-5.6 1.8-1.2 4.1-1.9 6.9-1.9.7 0 1.4 0 2.2.1.7.1 1.4.2 2 .3v11.4c-.9-.3-1.8-.5-2.6-.6-.9-.1-1.8-.2-2.7-.2-2.4 0-4.3.3-5.7 1-1.4.7-2.5 1.6-3.2 2.8-.7 1.2-1.2 2.6-1.5 4.3-.2 1.7-.3 3.5-.3 5.5v16.9h-12.5V31.1zm29.4-12.7c0-2 .7-3.7 2.1-5.1 1.4-1.4 3.1-2.1 5.1-2.1 2 0 3.7.7 5.1 2.1 1.4 1.4 1.1 3.1 1.1 5.1 0 2 .3 3.7-1.1 5.1-1.4 1.4-3.1 2.1-5.1 2.1-2 0-3.7-.7-5.1-2.1-1.4-1.4-2.1-3.1-2.1-5.1zm1 12.7h12.5v40.5h-12.5V31.1zm41.3 35.4h-.2c-1.4 2.2-3.2 3.7-5.5 4.7-2.3.9-4.7 1.4-7.3 1.4-1.9 0-3.7-.3-5.5-.8-1.7-.5-3.3-1.3-4.6-2.4-1.3-1.1-2.4-2.4-3.2-3.9-.8-1.6-1.2-3.4-1.2-5.4 0-2.3.4-4.3 1.3-5.9.9-1.6 2-2.9 3.5-4s3.1-1.9 5-2.5c1.9-.6 3.8-1 5.9-1.3 2-.3 4-.4 6.1-.5 2-.1 3.9-.1 5.6-.1 0-2.2-.8-4-2.4-5.3-1.6-1.3-3.5-2-5.6-2-2.1 0-3.9.4-5.6 1.3-1.7.9-3.2 2-4.5 3.5l-6.7-6.8c2.3-2.2 5.1-3.8 8.2-4.9 3.1-1.1 6.3-1.6 9.7-1.6 3.7 0 6.7.5 9 1.4 2.4.9 4.2 2.3 5.7 4 1.4 1.8 2.4 4 3 6.5.6 2.6.8 5.6.8 8.9v20.6h-11.5v-4.9zm-3.1-12.7c-.9 0-2.1 0-3.5.1s-2.8.3-4.1.7c-1.3.4-2.4 1-3.3 1.7-.9.8-1.4 1.9-1.4 3.2 0 1.5.6 2.6 1.9 3.3 1.3.7 2.6 1.1 4 1.1 1.2 0 2.4-.2 3.5-.5s2.1-.8 3-1.4c.9-.6 1.6-1.4 2.1-2.3.5-.9.8-2.1.8-3.3v-2.7h-3zm18-45.2H321v62.9h-12.5V8.6zm17.9 55.7c0-2 .7-3.7 2.1-5.1 1.4-1.4 3.1-2.1 5.1-2.1 2 0 3.7.7 5.1 2.1 1.4 1.4 2.1 3.1 2.1 5.1 0 2-.7 3.7-2.1 5.1-1.4 1.4-3.1 2.1-5.1 2.1-2 0-3.7-.7-5.1-2.1-1.3-1.4-2.1-3.1-2.1-5.1z"/></svg>