<svg id="Layer_1" data-name="Layer 1" xmlns="http://www.w3.org/2000/svg" viewBox="0 0 23.11 4.64"><defs><style>.cls-1{fill:#231f20}</style></defs><title>sswatch</title><path class="cls-1" d="M2.42 1.33A.91.91 0 0 0 1.74 1a.55.55 0 0 0-.63.44c0 .77 2 .28 2 1.76a1.44 1.44 0 0 1-1.64 1.4A2 2 0 0 1 0 4.11l.67-.73a1 1 0 0 0 .82.4.57.57 0 0 0 .65-.44c0-.78-2-.36-2-1.77A1.46 1.46 0 0 1 1.76.18a1.92 1.92 0 0 1 1.3.44zm2.64 1.15a.64.64 0 0 0-.52-.25.29.29 0 0 0-.33.24c0 .43 1.52.07 1.52 1.18a1.12 1.12 0 0 1-1.34 1 1.6 1.6 0 0 1-1.15-.4l.54-.65a.78.78 0 0 0 .64.32c.2 0 .41-.05.41-.21 0-.47-1.52-.07-1.52-1.18a1.07 1.07 0 0 1 1.22-1 1.47 1.47 0 0 1 1.08.38zm.66-.86h1l.55 1.83.5-1.83h1l.53 1.83.56-1.83h.91l-1 2.91h-.92L8.24 2.6l-.55 1.93h-.9zm6.93 2.55a1.05 1.05 0 0 1-.92.44.93.93 0 0 1-1-.9c0-1 1.22-1 2-1a.54.54 0 0 0-.58-.52 1 1 0 0 0-.73.35L10.87 2a1.88 1.88 0 0 1 1.28-.47c1 0 1.33.53 1.33 1.51v1.49h-.83v-.36zm-.22-.91c-.28 0-.89 0-.89.42A.38.38 0 0 0 12 4a.6.6 0 0 0 .68-.55v-.19h-.25zm3.36-.92H15v1c0 .31 0 .54.43.54a.65.65 0 0 0 .37-.08v.72a1.86 1.86 0 0 1-.63.09.89.89 0 0 1-1.06-.88V2.34h-.59v-.72h.58V.76h.9v.86h.79v.72zm2.31.22a.56.56 0 0 0-.44-.22.68.68 0 0 0-.72.74.68.68 0 0 0 .72.74.57.57 0 0 0 .44-.22l.59.62a1.46 1.46 0 0 1-1 .39 1.53 1.53 0 1 1 0-3.06 1.46 1.46 0 0 1 1 .39zM19.8 0v2a.84.84 0 0 1 .82-.47c.91 0 1.08.6 1.08 1.38v1.62h-.9V3.11c0-.34 0-.77-.47-.77s-.54.37-.54.74v1.45h-.89V0h.9zm2.75 3.47A.55.55 0 1 1 22 4a.55.55 0 0 1 .55-.53z"/></svg>