<svg id="Layer_1" data-name="Layer 1" xmlns="http://www.w3.org/2000/svg" viewBox="0 0 600.83 340.58"><defs><style>.cls-1{fill:#fff;}.cls-2{font-size:128.39px;font-family:Pacifico-Regular, Pacifico;}.cls-2,.cls-4,.cls-5{fill:#192753;}.cls-3{letter-spacing:-0.02em;}.cls-4{font-size:34.84px;font-family:OpenSans-Bold, Open Sans;font-weight:700;letter-spacing:-0.02em;}</style></defs><title>sassquatch-dropdowns</title><circle class="cls-1" cx="255.41" cy="127.59" r="6"/><circle class="cls-1" cx="294.41" cy="135.59" r="4"/><text class="cls-2" transform="translate(-1 283.9)"><tspan class="cls-3">S</tspan><tspan x="86.4" y="0">assquatch</tspan></text><text class="cls-4" transform="translate(3.55 328.45)">Simple.</text><text class="cls-4" transform="translate(130.49 328.45)">Modular.</text><text class="cls-4" transform="translate(314.49 328.45)"><tspan xml:space="preserve"> Accessible.</tspan></text><path class="cls-5" d="M270.41,162.59c2.42-.39-.92-3.51-.45-4.25a3,3,0,0,1,1-1c2.08-1,4.16,4.16,6.24,6.24s5.2,1,4.16,1-6.24-7.28-7.28-9.36-5.2-4.16-7.28-1,2.08,7.28,2.08,7.28S269.85,162.68,270.41,162.59Z"/><path class="cls-5" d="M286.41,164.59c2,2,4-2,5-2s0,2,2,0-1-6-2-3S286.41,164.59,286.41,164.59Z"/><path class="cls-5" d="M274.35,151.09a21.16,21.16,0,0,1,2.62,1.7c2.84,2,6.83,4.82,10.38,4.82a5.55,5.55,0,0,0,2.8-.72,1.5,1.5,0,0,0-1.49-2.6c-2.42,1.38-4.26,2.3-10-3.95-1.91-2.09-3.37-2.35-4.44-2.24a1.5,1.5,0,0,0,.09,3Z"/><path class="cls-5" d="M303.74,159.62c-3.38-3.44-5.49-9.34-3.57-22.27,2.31-6,5.17-12.25,5-14.43a7,7,0,0,0,.25-1.33.71.71,0,0,0-.16-.39c7.1-1.86,18.44-8.82,24.16-18.61,11.17-19.1,3-42.68-10.13-71.51-10-21.93-18.44-27.88-23.78-29a3.22,3.22,0,0,0-3.09,1.05,4.35,4.35,0,0,0-.83,4.19c4.38,13.51,4.51,18.78,3.93,19.82a2.48,2.48,0,0,1-.74-.32,45.5,45.5,0,0,1-3.19-4.52c-5.17-7.82-7.68-11.15-10-10.21-1.9.76-1.83,3.5-1.1,7.67,1,6-2.78,12.12-6.17,16.22a53.36,53.36,0,0,1-10,9.24,1.1,1.1,0,0,1-1.65-1.3c2.46-5.89,2.89-12.46,1.8-14.3a1.77,1.77,0,0,0-1.75-.93c-1.21.13-1.78,1.37-2.17,2.56-1.35,4.11-12.33,6-29,8.79-4.14.7-18.06,1.65-23.11,2.56-24.89,4.5-39.12,26.17-55,50-1.47,2.21-28.62,39.49-30.69,71.53-.07,1-.24,3-.4,5.38-6.94,0-12.28.66-14.24-1-4.24-3.61-2.5,6.29.32,8.1a13.21,13.21,0,0,0,1.84,1c-9.74,4.48-18.84,10.15-18.84,12v5c0,1,1,1,4.77-1.23,2.25-1.33,11.93-8.85,27.23-10.77,8-1,22.2.86,28,5,1.87,1.34,7,5,12,16,0,0,6.57.28,7,0,1.15-.77-.08-3.61-4-10a57.71,57.71,0,0,0-15-15,13.82,13.82,0,0,1-1.15-.89l.15-.11a40.73,40.73,0,0,0-13.92-6.47c-.05-1.68,0-3-.08-3.53-2-23.44,20.85-60.53,30-77,10-18,31-40,51-40,17.7,0,19.58-4.45,32.23-7.78,2.3-.61,3.18.58,1.88,2.58a19.62,19.62,0,0,1-2.62,3.2c-2,2,5.55,6.61,14,5,10.5-2,18.5-10,21.5-22,.88-3.51,6-1,8,2,2.4,3.6,4,5,9,3,.93-.37,8.5-1,0-20-.22-.5,5-.89,15,21,12.68,27.89,12.85,41,2.21,59.2-5.75,9.83-11.36,12.95-17.21,13.8-5.47.8-12.9-5.37-20-12-16.28-15.2-31-17.08-37-18-8.82-1.35-36.21,17.1-46.5,46-3.22,9-3.81,15.22-.5,18,4.21,3.53,6,4,11,3,.46-.09,9.54-3.29,2.5,2a123.74,123.74,0,0,1-11.19,7.83.42.42,0,0,0-.18.51c4.12,10.54,15.72,5.15,20.37,1.66,4-3,1.5,3-2.5,6-2,1.51-6.75,4.61-6.5,6a4.57,4.57,0,0,0,2,3c3,2,9.72,1.78,12.5-1,1-1,.59,4.31-5.6,7.79-.25.14,1,5.45,3.6,7.21,6,4,15.07,3.4,18-1a16.14,16.14,0,0,1,2-2.42.44.44,0,0,1,.7.46c-1.68,5.13-1.38,8.34,4.31,10,4.9,1.4,7.53-4.51,9-6,2.68-2.71,2,.69,2,2,0,7,0,7,5,7,6,0,4.67-8,9-8a3.56,3.56,0,0,1,3,2.26v.06c.22,1.12.9,4.4,3.2,4.45a3,3,0,0,0,2.72-2.41c.13-.52,1-5.72,2-7.23a.41.41,0,0,1,.26-.18c4.89-1,4.93,9.9,13.69,8.07a2.34,2.34,0,0,0,1.77-2.76c-.35-1.71-.46-3.27,1.36-3.27,0,0,4.79.75,8,0,.26-.06,2.4-2.77,1-8-1.25-4.66,2.86,1.29,6,0,.64-.26.23-4.08.53-5.57a.82.82,0,0,1,1.59-.09c.28.86.6,1.87.94,3.07A33.14,33.14,0,0,1,318,202a1.09,1.09,0,0,0,.48,1.42l.73.39a1.07,1.07,0,0,0,1.56-.59c1.23-3.52,10.91-9.57,8.48-23C326.93,161,306.61,159.79,303.74,159.62Zm-9.84-26.53a2.56,2.56,0,1,1-2,2.5A2.29,2.29,0,0,1,293.91,133.09ZM314,175.53s-3.56-4.94-8.56-2.94c-.8.32.93,10.45.44,10.94s-3.35-.35-4.44-.94c-1.26-.68-3.87-2-5-2s0,10-1.53,10.09-3.57-4.19-7.47-8.09c-1.86-1.86-3.53-1.3-4.74-1a.41.41,0,0,0-.32.31l-1.11,4.74c-.33,1.43-2.83,1-3.83-1s-2.8-4-5-4c-1,0-4,9-7,10-.49.16-.94-2.93-1-4-.21-3.81-1.84-6.88-6.7-7a.42.42,0,0,0-.4.27,43.35,43.35,0,0,1-1.72,4c-.66,1.24-3.54,3.84-5.2,3.28s-1.28-4.09-1.05-6.69a16.18,16.18,0,0,0,.05-4.19c-.37-1.84-1-3.75-2.61-4-1.83-.32-3,1.57-4.15,3.56-2.21,3.68-11.21,8.77-14,5.28-.35-.44,2-3.79,2.77-4.51a11.49,11.49,0,0,0,1.78-14l-.24-.39a1.1,1.1,0,0,0-1.64-.28l-.35.29c-3.76,3.11-5.54,2.36-5.54,2.36a34.24,34.24,0,0,1,2.74-4.77,9.46,9.46,0,0,0,1-9.46c-.78-1.47-1.74-1.69-2.25-1.69s-.82.19-1.89,1c-2,1.48-6.82,5.13-12.29,6.88a1.11,1.11,0,0,1-1-2c1.77-1.23,3.59-2.43,4.76-3.2,1.39-.91,2.58-1.7,3.28-2.21,5.7-4.18,4-9.67,2.33-12l-.79-1.08-1.17.66c-2.77,1.57-11.41,5.46-14.61,2.77-2.14-1.8-1.87-6.87.76-14.27,9.57-26.87,34.51-35.65,42.36-34.44,5.67.86,17.52,4.5,33.2,19.16,6.48,6.05,12.59,10,18.16,10.65-.81,2.7-1.95,8-10.63,8-11,0-37-20-51-20-11.07,0-18.39,9.38-21,13.3a3.08,3.08,0,0,0,.13,3.59c4.63,5.84,9.45-7.13,16.83-9.9,2-.75,5.83-1.39,13,1-3,2-5.48,5.13-5.48,8.5,0,5.51,5,13,10,13a11.87,11.87,0,0,0,12.5-11.5,8.72,8.72,0,0,0-.26-2.05,65.58,65.58,0,0,0,21.37,6.33,73.38,73.38,0,0,1,3.33,10.61c1.56,7.11,2.44,2.14,2.44-.71,0-.19,0-.39,0-.59a1.62,1.62,0,0,0,1.11.42,1.8,1.8,0,0,1,1.14.56c.16,2.57.5,6.78,1.12,11.2,1.26,9,3.11,14.83,5.51,17.43-3.93,2.3-9.73,4.31-18.27,4.31-20,0-39-26-39-26-1-1-1,0-1,0s1,3,0,5a4.9,4.9,0,0,0-.5,3.5s6.23,7.6,10,10c5.5,3.5,16,12,32,12,13.87,0,22.48-9,25.17-12.07,2-.8,5.75,1.23,5.82,7.89,0,.15-.06.3-.09.44Zm-54.56-48.44c0,2.89-2,5.25-4.5,5.25s-4.5-2.36-4.5-5.25,2-5.25,4.5-5.25S259.41,124.2,259.41,127.09Z"/><path class="cls-5" d="M411.52,187.69c-.63-2.08-3.95-6.54-9.44-5.14-.71.18,4.57-8.08-1.56-14.33-1.38-1.4-4.26-2.53-7.54-2.88a2.15,2.15,0,0,1-1.88-2.8c.88-2.49,1-6.51-3.88-10.94-2.26-2-7.23-2.7-11.19-2.09-1.85.29-3.77.93-3.55-.89a11.12,11.12,0,0,1,3.21-7.13c.77-.83,12.18-18.27,13.19-21.59a39.9,39.9,0,0,0,5.19-13q1.25-6.44-1-11.07a9.49,9.49,0,0,0-7-5.56q-9-1.76-17.77,8.59A81,81,0,0,0,356.62,117c-4.67,8.27-11.76,22-13.24,24.1s-2.43,3.37-3.23,4.35c-1.86-.82-2.69-1.16-6.18-1.27a12.45,12.45,0,0,0-9.94,3c-.41.36-4.91,8,3.59,16,4.78,4.45,1.15,12.52,1.15,12.52l-11.37,27.94s1.19,1.49,7-1c6.72-2.88,10-23.18,15.33-31.08l1.13-.25.08,0,12.94,6.86c1.34,2.3,2.21,9.16,8.37,6.78,1.18-.46,1.06-.82.92.41-.45,4.11-.76,6.23,2.18,8.9.94.85,3.85,1.29,6.21,1,3.73-.4-.13,1.85,2.74,5.92,1.73,2.46,6.33,4.29,8.64,4.42.42,0,16.64,1.23,23.79-4.14C409.24,199.61,412.58,191.2,411.52,187.69Zm-75.39-24.1c-9.73-6-7.31-10.23-7.15-11.31,1.6-2.46,3.42-2.69,7.42-2.69,6,0,13.76,8.18,18.44,14.44v0h0c2.35,3.15,3.92,5.8,4.07,6.68-.36,3.86-1.49,5.09-2.06,5.33Zm66.6,31.35a58,58,0,0,1-10.38,2.92c-7.66,1.51-11,1.39-12.44,1.14-.52-.1-1.78-1.73-1.22-2.42,3.55-4.44,6.36-4.9,5.33-7.1-1-2-9.36.6-12.43,0-.73-.14-4.65-3.3-3-5.51,1.13-1.51,8.1-7.51,7.74-8.07-1.33-2.08-9.79,7.06-16,1.42,1-1.43,2.81-2.95,3.05-5.72a10.34,10.34,0,0,0-1-4c-1-2-10.61-16.55-13-19-.17-1.15-.5.2,0-1,1.32-3.16,6.51-11.66,11.91-20.12,0,0,12.86-20.67,15.09-23.88s4.23-3.88,5.49-3.63q1.37.27,1.76,2.15a13.63,13.63,0,0,1-.24,5.16c-.93,4.77-24,42.36-24,46.33,0,2,2,9,5.26,5.7,2.73-2.77,8.3-4.19,11.84-3.69s4.5.38,7.8,4c5.27,5.73-6.5,11.27-3.84,13.93,0,0,.89.89,3.88-.1.18-.06,4.28-2.22,7.21-.92,3.51,1.56,5.57,4.48,4.53,8.07s-5.83,4.13-4.89,6.55,1.68-.83,8.52-.1C406.38,187.7,405.12,193.13,402.74,194.94Z"/></svg>