<?xml version="1.0" encoding="utf-8"?>
<!-- Generator: Adobe Illustrator 19.1.0, SVG Export Plug-In . SVG Version: 6.00 Build 0)  -->
<svg version="1.1" id="Layer_1" xmlns="http://www.w3.org/2000/svg" xmlns:xlink="http://www.w3.org/1999/xlink" x="0px" y="0px"
	 viewBox="0 0 349.3 81.2" style="enable-background:new 0 0 349.3 81.2;" xml:space="preserve">
<metadata><?xpacket begin="﻿" id="W5M0MpCehiHzreSzNTczkc9d"?>
<x:xmpmeta xmlns:x="adobe:ns:meta/" x:xmptk="Adobe XMP Core 5.6-c067 79.157747, 2015/03/30-23:40:42        ">
   <rdf:RDF xmlns:rdf="http://www.w3.org/1999/02/22-rdf-syntax-ns#">
      <rdf:Description rdf:about=""/>
   </rdf:RDF>
</x:xmpmeta>
                                                                                                    
                                                                                                    
                                                                                                    
                                                                                                    
                                                                                                    
                                                                                                    
                                                                                                    
                                                                                                    
                                                                                                    
                                                                                                    
                                                                                                    
                                                                                                    
                                                                                                    
                                                                                                    
                                                                                                    
                                                                                                    
                                                                                                    
                                                                                                    
                                                                                                    
                                                                                                    
                           
<?xpacket end="w"?></metadata>
<style type="text/css">
	.st0{fill:#141414;}
</style>
<g>
	<path class="st0" d="M8.4,18.4c0-2,0.7-3.7,2.1-5.1c1.4-1.4,3.1-2.1,5.1-2.1c2,0,3.7,0.7,5.1,2.1c1.4,1.4,2.1,3.1,2.1,5.1
		c0,2-0.7,3.7-2.1,5.1c-1.4,1.4-3.1,2.1-5.1,2.1c-2,0-3.7-0.7-5.1-2.1C9.1,22.1,8.4,20.4,8.4,18.4z M9.4,31.1h12.5v40.5H9.4V31.1z"
		/>
	<path class="st0" d="M26.3,31.1h12v5.5h0.2c0.4-0.8,0.9-1.6,1.7-2.3c0.7-0.8,1.6-1.5,2.6-2.1c1-0.6,2.1-1.1,3.4-1.5
		c1.3-0.4,2.7-0.6,4.2-0.6c3.2,0,5.7,0.5,7.7,1.5c1.9,1,3.5,2.3,4.5,4c1.1,1.7,1.8,3.7,2.2,6.1c0.4,2.3,0.6,4.9,0.6,7.6v22.3H52.7
		V51.7c0-1.2,0-2.4-0.1-3.6c-0.1-1.2-0.3-2.4-0.7-3.5c-0.4-1.1-1.1-1.9-1.9-2.6c-0.9-0.7-2.1-1-3.7-1c-1.6,0-2.9,0.3-3.9,0.9
		c-1,0.6-1.8,1.4-2.3,2.3c-0.5,1-0.9,2.1-1,3.3c-0.2,1.2-0.3,2.5-0.3,3.8v20.1H26.3V31.1z"/>
	<path class="st0" d="M110.9,71.5H99.4v-5.3h-0.2c-0.5,0.7-1.2,1.5-2,2.2c-0.8,0.7-1.7,1.4-2.8,2c-1.1,0.6-2.3,1.1-3.6,1.5
		c-1.3,0.4-2.6,0.6-4,0.6c-3,0-5.7-0.5-8.2-1.5c-2.4-1-4.5-2.5-6.3-4.3c-1.7-1.9-3.1-4.1-4-6.6c-0.9-2.6-1.4-5.4-1.4-8.4
		c0-2.8,0.4-5.5,1.3-8.1c0.9-2.6,2.1-4.9,3.7-6.9c1.6-2,3.5-3.6,5.8-4.8c2.3-1.2,4.9-1.8,7.7-1.8c2.6,0,5,0.4,7.3,1.2
		c2.2,0.8,4.1,2.2,5.5,4.1h0.2V8.6h12.5V71.5z M99.4,51.3c0-3.1-0.9-5.5-2.6-7.4c-1.7-1.9-4.2-2.8-7.4-2.8c-3.2,0-5.6,0.9-7.4,2.8
		c-1.7,1.9-2.6,4.4-2.6,7.4c0,3.1,0.9,5.5,2.6,7.4c1.7,1.9,4.2,2.8,7.4,2.8c3.2,0,5.6-0.9,7.4-2.8C98.6,56.8,99.4,54.4,99.4,51.3z"
		/>
	<path class="st0" d="M153.5,71.5h-12v-5.5h-0.2c-0.4,0.8-1,1.6-1.7,2.3c-0.7,0.8-1.5,1.5-2.5,2.1c-1,0.6-2.1,1.1-3.4,1.5
		c-1.3,0.4-2.7,0.6-4.2,0.6c-3.2,0-5.7-0.5-7.7-1.5c-2-1-3.5-2.3-4.6-4c-1.1-1.7-1.8-3.7-2.2-6.1c-0.4-2.3-0.5-4.9-0.5-7.6V31.1H127
		v19.8c0,1.2,0,2.4,0.1,3.6c0.1,1.2,0.3,2.4,0.7,3.5c0.4,1.1,1.1,1.9,1.9,2.6c0.9,0.7,2.1,1,3.7,1c1.6,0,2.9-0.3,3.9-0.9
		c1-0.6,1.8-1.4,2.3-2.3c0.5-1,0.9-2.1,1-3.3c0.2-1.2,0.2-2.5,0.2-3.8V31.1h12.5V71.5z"/>
	<path class="st0" d="M180.7,43c-1.8-2.3-4.2-3.4-7.2-3.4c-1.1,0-2.1,0.2-3.1,0.7c-1,0.5-1.5,1.4-1.5,2.6c0,1,0.5,1.7,1.5,2.2
		c1,0.5,2.3,0.9,3.9,1.2c1.6,0.4,3.3,0.8,5.1,1.2c1.8,0.4,3.5,1.1,5.1,2c1.6,0.9,2.9,2.1,3.9,3.6c1,1.5,1.5,3.6,1.5,6.1
		c0,2.6-0.6,4.8-1.7,6.5c-1.1,1.7-2.6,3.1-4.4,4.1c-1.8,1-3.8,1.7-6,2.2c-2.2,0.4-4.4,0.6-6.6,0.6c-2.8,0-5.7-0.4-8.6-1.2
		c-2.9-0.8-5.3-2.2-7.3-4.3l7.6-8.4c1.2,1.4,2.5,2.5,3.9,3.3c1.4,0.7,3.1,1.1,5,1.1c1.4,0,2.7-0.2,3.9-0.6c1.2-0.4,1.8-1.2,1.8-2.3
		c0-1.1-0.5-1.8-1.5-2.4c-1-0.5-2.3-1-3.9-1.3c-1.6-0.4-3.3-0.8-5.1-1.2c-1.8-0.4-3.5-1-5.1-1.9c-1.6-0.8-2.9-2-3.9-3.5
		c-1-1.5-1.5-3.6-1.5-6.1c0-2.4,0.5-4.4,1.5-6.2c1-1.7,2.2-3.1,3.8-4.2c1.6-1.1,3.4-1.9,5.5-2.5c2.1-0.5,4.1-0.8,6.2-0.8
		c2.7,0,5.4,0.4,8.1,1.2c2.7,0.8,5,2.2,6.9,4.2L180.7,43z"/>
	<path class="st0" d="M219.3,41.1h-11v13.5c0,1.1,0.1,2.1,0.2,3c0.1,0.9,0.4,1.7,0.8,2.4c0.4,0.7,1,1.2,1.8,1.5
		c0.8,0.4,1.9,0.5,3.2,0.5c0.7,0,1.5-0.1,2.6-0.2c1.1-0.1,1.9-0.5,2.5-1v10.4c-1.4,0.5-2.8,0.8-4.3,1c-1.5,0.2-3,0.2-4.4,0.2
		c-2.1,0-4.1-0.2-5.8-0.7c-1.8-0.4-3.3-1.1-4.7-2.1c-1.3-1-2.4-2.2-3.1-3.8c-0.7-1.6-1.1-3.4-1.1-5.7V41.1h-8v-10h8v-12h12.5v12h11
		V41.1z"/>
	<path class="st0" d="M221.9,31.1h12.5v6.5h0.2c1.3-2.5,2.9-4.4,4.7-5.6c1.8-1.2,4.1-1.9,6.9-1.9c0.7,0,1.4,0,2.2,0.1
		c0.7,0.1,1.4,0.2,2,0.3v11.4c-0.9-0.3-1.8-0.5-2.6-0.6c-0.9-0.1-1.8-0.2-2.7-0.2c-2.4,0-4.3,0.3-5.7,1c-1.4,0.7-2.5,1.6-3.2,2.8
		c-0.7,1.2-1.2,2.6-1.5,4.3c-0.2,1.7-0.3,3.5-0.3,5.5v16.9h-12.5V31.1z"/>
	<path class="st0" d="M251.3,18.4c0-2,0.7-3.7,2.1-5.1c1.4-1.4,3.1-2.1,5.1-2.1c2,0,3.7,0.7,5.1,2.1c1.4,1.4,1.1,3.1,1.1,5.1
		c0,2,0.3,3.7-1.1,5.1c-1.4,1.4-3.1,2.1-5.1,2.1c-2,0-3.7-0.7-5.1-2.1C252,22.1,251.3,20.4,251.3,18.4z M252.3,31.1h12.5v40.5h-12.5
		V31.1z"/>
	<path class="st0" d="M293.6,66.5h-0.2c-1.4,2.2-3.2,3.7-5.5,4.7c-2.3,0.9-4.7,1.4-7.3,1.4c-1.9,0-3.7-0.3-5.5-0.8
		c-1.7-0.5-3.3-1.3-4.6-2.4c-1.3-1.1-2.4-2.4-3.2-3.9c-0.8-1.6-1.2-3.4-1.2-5.4c0-2.3,0.4-4.3,1.3-5.9c0.9-1.6,2-2.9,3.5-4
		c1.5-1.1,3.1-1.9,5-2.5c1.9-0.6,3.8-1,5.9-1.3c2-0.3,4-0.4,6.1-0.5c2-0.1,3.9-0.1,5.6-0.1c0-2.2-0.8-4-2.4-5.3
		c-1.6-1.3-3.5-2-5.6-2c-2.1,0-3.9,0.4-5.6,1.3c-1.7,0.9-3.2,2-4.5,3.5l-6.7-6.8c2.3-2.2,5.1-3.8,8.2-4.9c3.1-1.1,6.3-1.6,9.7-1.6
		c3.7,0,6.7,0.5,9,1.4c2.4,0.9,4.2,2.3,5.7,4c1.4,1.8,2.4,4,3,6.5c0.6,2.6,0.8,5.6,0.8,8.9v20.6h-11.5V66.5z M290.5,53.8
		c-0.9,0-2.1,0-3.5,0.1c-1.4,0.1-2.8,0.3-4.1,0.7c-1.3,0.4-2.4,1-3.3,1.7c-0.9,0.8-1.4,1.9-1.4,3.2c0,1.5,0.6,2.6,1.9,3.3
		c1.3,0.7,2.6,1.1,4,1.1c1.2,0,2.4-0.2,3.5-0.5c1.1-0.3,2.1-0.8,3-1.4c0.9-0.6,1.6-1.4,2.1-2.3c0.5-0.9,0.8-2.1,0.8-3.3v-2.7H290.5z
		"/>
	<path class="st0" d="M308.5,8.6h12.5v62.9h-12.5V8.6z"/>
	<path class="st0" d="M326.4,64.3c0-2,0.7-3.7,2.1-5.1c1.4-1.4,3.1-2.1,5.1-2.1c2,0,3.7,0.7,5.1,2.1c1.4,1.4,2.1,3.1,2.1,5.1
		c0,2-0.7,3.7-2.1,5.1c-1.4,1.4-3.1,2.1-5.1,2.1c-2,0-3.7-0.7-5.1-2.1C327.2,68,326.4,66.3,326.4,64.3z"/>
</g>
</svg>
