<svg id="Layer_1" data-name="Layer 1" xmlns="http://www.w3.org/2000/svg" viewBox="0 0 600.83 340.58"><defs><style>.cls-1{fill:#7c6e66;}.cls-2{fill:#91897a;}.cls-3{fill:#e1c0dc;}.cls-4{fill:#b57eae;}.cls-5{fill:#e1d6ea;}.cls-6{fill:#fff;}.cls-7{fill:#192753;}.cls-8{fill:#b40573;}.cls-9{fill:#c7718e;}</style></defs><title>sassquatch</title><path class="cls-1" d="M337.41,170.59l-8,26s-2,1,0,2c0,0,8,5,20-5,2.17-1.81,2,6-1,7-4,1.34,6,4,12,0,1.18-.78,5-3,6-3s4.68-.37,2,5c-1,2,9,0,9-5C377.41,187.59,377.41,159.59,337.41,170.59Z"/><path class="cls-1" d="M325.91,184.09l-11-16-40-31s-15-45-9-45,30.5,26.5,38.5,29.5,20-16,22-23,4-27,3-32-13-40-17-44-13-11-13-11v24l-12-11s-13,22-14,25-17,1-17,1l4-10s-25,7-31,8-9-10-43,13-58,111-58,111c5-3,28-14,48,8q2.81,3.09,5.56,5.87c-2.56,0-6-.8-10.56-2.87-2.88-1.3,2,11,14,18,10.11,5.9,44,19,74,13,9.21-1.49,25.53-8,32-9,20-3,29-1,29-1l9.5-9.5Z"/><path class="cls-2" d="M311.21,177.59s-22.35,1.25-25.8,7c-3,5,7.38-1.53,0,4-4,3,2,14-12,13-3.15-.23-9,11-24,5-7.25-2.9-6-4-9.5-4.5-6.26-.89-15.53,4-25.5-1.5-13.5-7.5-14-18-14-18s8.5.5,10.5-1.5-11.53-4.31-20.5-8.5c-15-7-19.5-17.5-19.5-27.5,0,0,3,6,8,4s1-5-1-12,2-9,2-9,2,8,6,5,1.61-30.59,5-40c4.5-12.5,11.17-19.75,23.5-25.5,22.5-10.5,45,6,57,1,5-2.07,19.5-14.5,18.5-19.5s7,14,3,22,2,9,4,7,6-12,5-16,9,9,9,17,5,1,5,1,.33,45.67-26.83,29.83S292.51,178.09,311.21,177.59Z"/><path class="cls-3" d="M389.41,204.59l18-7v-11l-6-2-3-11-9-4-1-11-11-5h-12l16-29,9-21-7-7-8,4-15,22-16,26,13.08,15.25,4.92,6.75-2,11,5,2,2,9,9,2,1,8S386.41,204.59,389.41,204.59Z"/><path class="cls-4" d="M385.41,203.59c-3.51,3.51-9-9-23-21-15.61-13.38-17.29-31.41-15-27,14,27,5.26,9.16,25,21,5,3-1,6,6,12C407.94,213.91,388.92,200.08,385.41,203.59Z"/><path class="cls-3" d="M329.41,148.59s16,0,18,2,15,20,15,20l-4,10-29-17-3-13Z"/><path class="cls-4" d="M361.41,176.59c-3,4-12.78-2-22.82-8.87s-14.74-11.85-13.18-14.13,7.83,0,16,9C351.41,173.59,363.06,174.38,361.41,176.59Z"/><path class="cls-3" d="M292.41,115.59s-23-28-41-26-38,9-41,23-12,26-9,30,18,2,18,2l-12,14s7,5,7,4,11-7,11-7-7,17-6,17h12l-6,12,9,4,12-8v10l6,2,8-7,3,9,3,3,7-12,7,10,4-11,12,10,3-9,9,3v-13l7,5,3-8-3-7a30.52,30.52,0,0,0-7.5-1.5c-3,0-5,3-8-5s-1-22,1-27,3-13,3-13Z"/><path class="cls-5" d="M287.41,122.59c-14-7-21.53-14.23-39-19-11-3-23,5,2,25,23.06,18.45,2,64,2,64l8-7,3,9,3,3,7-12,7,10,4-11,12,10,3-9,9,3v-13l7,5,3-8-3-7a30.52,30.52,0,0,0-7.5-1.5c-3,0-5,3-8-5s-1-22,1-27a40.69,40.69,0,0,0,2.5-9.5S301.41,129.59,287.41,122.59Z"/><path class="cls-4" d="M226.41,125.59c0-1,12-6,19-1,1.82,1.3,38,14,45,10s-3-3-3-3l-23-9s-16-8-22-8-13,3-14,4S226.41,125.59,226.41,125.59Z"/><path class="cls-4" d="M293.41,159.59c-.48,1.3-4.52,8.38-11,6s-6-7-11.24-10.8a62.32,62.32,0,0,0,11.24,5.8C288.89,163,293.88,158.3,293.41,159.59Z"/><circle class="cls-6" cx="256.41" cy="128.59" r="6"/><circle class="cls-6" cx="295.41" cy="136.59" r="4"/><path class="cls-7" d="M14.64,279.45Q4.36,273,4.37,259.61q0-7.06,2.44-10.78A8,8,0,0,1,14,245.1a8.6,8.6,0,0,1,5.65,1.8,5.72,5.72,0,0,1,2.18,4.62,23.13,23.13,0,0,1-.39,4.49,14.19,14.19,0,0,1-.19,1.8,18.18,18.18,0,0,0-.19,2.7q0,5.78,5.84,8.6t16.37,2.82q10.91,0,17.08-3.92a12.32,12.32,0,0,0,6.16-11,10.87,10.87,0,0,0-2.82-7.51,23.46,23.46,0,0,0-7.06-5.26q-4.24-2.12-11.94-5.2a133.32,133.32,0,0,1-16.11-7.32,33.41,33.41,0,0,1-10.66-9.44q-4.43-6-4.43-14.83a28.31,28.31,0,0,1,4.94-16.43,32,32,0,0,1,14.25-11.17q9.31-4,21.89-4a51.46,51.46,0,0,1,17.2,2.76,27.9,27.9,0,0,1,12.52,8.41A21,21,0,0,1,89,200.94q0,8.09-2.44,12.2a7.86,7.86,0,0,1-7.19,4.11,8,8,0,0,1-5.58-2.05,6.39,6.39,0,0,1-2.25-4.88,24.44,24.44,0,0,1,.39-4.49q.39-3.85.39-4.88,0-5.39-5.26-8.22a27.47,27.47,0,0,0-13.1-2.82q-11,0-16.88,4a13,13,0,0,0-5.84,11.36,12.27,12.27,0,0,0,3,8.34,24.9,24.9,0,0,0,7.51,5.78q4.49,2.31,12.58,5.52A162.44,162.44,0,0,1,70,232.14,31.26,31.26,0,0,1,80,240.87a21.93,21.93,0,0,1,4.17,13.61q0,15.15-11.49,23.3T42,285.93Q24.91,285.93,14.64,279.45Z"/><path class="cls-7" d="M95.65,279.77Q90.9,274,90.9,264.62a41.73,41.73,0,0,1,4.75-19.45,40.55,40.55,0,0,1,12.65-14.76A28.52,28.52,0,0,1,125,224.82q2.82,0,3.79,1.09a9.25,9.25,0,0,1,1.6,3.92,30.27,30.27,0,0,1,5.65-.51q6.29,0,6.29,4.49,0,2.7-1.93,12.84-3,14.76-3,20.54a4.66,4.66,0,0,0,1,3.08,3.11,3.11,0,0,0,2.5,1.16q2.44,0,5.91-3.15a109.69,109.69,0,0,0,9.37-10.21,4.51,4.51,0,0,1,3.47-1.8,3,3,0,0,1,2.63,1.54,8,8,0,0,1,1,4.24q0,5.14-2.44,8a64.81,64.81,0,0,1-11.17,11q-5.91,4.5-11.43,4.49a12,12,0,0,1-7.77-2.89,17.59,17.59,0,0,1-5.33-7.9q-6.68,10.78-16.82,10.78A15.61,15.61,0,0,1,95.65,279.77Zm22.72-10.53a21.65,21.65,0,0,0,3.72-8.86l4.75-23.62a15.55,15.55,0,0,0-9.95,4,27.25,27.25,0,0,0-7.25,10.33,34.79,34.79,0,0,0-2.7,13.61q0,4,1.6,5.91a5.45,5.45,0,0,0,4.43,1.93Q115.8,272.58,118.37,269.24Z"/><path class="cls-7" d="M166.58,285.29a9.06,9.06,0,0,1-3.53-6.93,7.9,7.9,0,0,1,2.44-5.78q2.44-2.44,7.19-2.44a28.36,28.36,0,0,1,3.92.32q2.25.32,3.4.45a16.55,16.55,0,0,0-1.48-6.29,31.55,31.55,0,0,0-3.4-5.71q-2.06-2.76-3.85-4.81a83.89,83.89,0,0,1-7.9,12.58,94,94,0,0,1-8.54,9.5,6.87,6.87,0,0,1-4.88,2.31,4.21,4.21,0,0,1-3.34-1.48,5.38,5.38,0,0,1-1.28-3.66,7.33,7.33,0,0,1,1.8-4.75l1.67-2.05a165.8,165.8,0,0,0,10.66-14.38q2.18-3.72,5.14-10t5.78-12.9q2.44-5.65,10.14-5.65a13.49,13.49,0,0,1,5,.64,2.14,2.14,0,0,1,1.41,2.05,9.47,9.47,0,0,1-.51,2.44,18.63,18.63,0,0,1-1.41,3.34,18.32,18.32,0,0,0-2.31,7.83,8.55,8.55,0,0,0,1.35,4.24,48,48,0,0,0,4.17,5.78,81.71,81.71,0,0,1,6.23,9.18,16.68,16.68,0,0,1,2.12,8.28,34.85,34.85,0,0,1-.26,3.59q6.29-2.44,14.76-13a4.51,4.51,0,0,1,3.47-1.8,3,3,0,0,1,2.63,1.54,8,8,0,0,1,1,4.24,12.44,12.44,0,0,1-2.44,8q-6.42,8-12.26,10.85A34.8,34.8,0,0,1,189,284a18.23,18.23,0,0,1-12.2,4.37Q170.11,288.37,166.58,285.29Z"/><path class="cls-7" d="M221.4,285.29a9.06,9.06,0,0,1-3.53-6.93,7.9,7.9,0,0,1,2.44-5.78q2.44-2.44,7.19-2.44a28.36,28.36,0,0,1,3.92.32q2.25.32,3.4.45a16.55,16.55,0,0,0-1.48-6.29,31.55,31.55,0,0,0-3.4-5.71q-2.06-2.76-3.85-4.81a83.89,83.89,0,0,1-7.9,12.58,94,94,0,0,1-8.54,9.5,6.87,6.87,0,0,1-4.88,2.31,4.21,4.21,0,0,1-3.34-1.48,5.38,5.38,0,0,1-1.28-3.66,7.33,7.33,0,0,1,1.8-4.75l1.67-2.05a165.72,165.72,0,0,0,10.66-14.38q2.18-3.72,5.14-10t5.78-12.9q2.44-5.65,10.14-5.65a13.49,13.49,0,0,1,5,.64,2.14,2.14,0,0,1,1.41,2.05,9.47,9.47,0,0,1-.51,2.44,18.63,18.63,0,0,1-1.41,3.34,18.32,18.32,0,0,0-2.31,7.83,8.55,8.55,0,0,0,1.35,4.24A48,48,0,0,0,243,250a81.71,81.71,0,0,1,6.23,9.18,16.68,16.68,0,0,1,2.12,8.28,34.85,34.85,0,0,1-.26,3.59q6.29-2.44,14.76-13a4.51,4.51,0,0,1,3.47-1.8,3,3,0,0,1,2.63,1.54,8,8,0,0,1,1,4.24,12.44,12.44,0,0,1-2.44,8q-6.42,8-12.26,10.85A34.8,34.8,0,0,1,243.8,284a18.23,18.23,0,0,1-12.2,4.37Q224.93,288.37,221.4,285.29Z"/><path class="cls-7" d="M337.52,264.23q0,5-2.25,7.83a7.38,7.38,0,0,1-6.1,2.82l-4.75-.13q-1.29-.13-3.72-.13.51,7.32.51,14.64,0,19.38-5.07,33.77t-15.86,14.38q-7.32,0-11.11-8.41t-3.79-20.48a132.89,132.89,0,0,1,3.34-29.66q-4.37,6.68-11.43,6.68a14.41,14.41,0,0,1-11.75-5.91q-4.69-5.9-4.69-15.28a42,42,0,0,1,17.65-34,29.46,29.46,0,0,1,17.14-5.58,5.78,5.78,0,0,1,4.75,2.05q1.16-4.11,3.47-5.52a12.32,12.32,0,0,1,6.42-1.41q4.36,0,5.84,1.28a4.35,4.35,0,0,1,1.35,3.72,36.12,36.12,0,0,1-1.6,7.13q-1.61,5.59-2.12,7.38-2.06,7.19-4.43,15.92t-3.79,15.92a187.77,187.77,0,0,0-4.11,36.33,45.5,45.5,0,0,0,1,10.08q1,4.17,2.5,4.17,1.28,0,2.76-4.37a66.94,66.94,0,0,0,2.5-11.68,112,112,0,0,0,1-15.53,149,149,0,0,0-.9-17.33,11.6,11.6,0,0,1-.13-2.05,11.44,11.44,0,0,1,2.12-7.06,7,7,0,0,1,6-2.82q.51,0,9.76-.39,3.85-.38,6.55-.38Q337.52,260.25,337.52,264.23Zm-49.43,4.69a23.2,23.2,0,0,0,3.85-8.79l5.52-23.37a16.52,16.52,0,0,0-10.34,4,26.66,26.66,0,0,0-7.45,10.21,33.31,33.31,0,0,0-2.76,13.42,10.6,10.6,0,0,0,1.48,6.1,4.67,4.67,0,0,0,4,2.12Q285.4,272.58,288.09,268.92Z"/><path class="cls-7" d="M330.39,280.22q-3.66-5.33-3.66-13.29A112,112,0,0,1,328,249.28a110.47,110.47,0,0,1,4.24-17,10.73,10.73,0,0,1,3.59-5.52q2.31-1.67,7.32-1.67a6.35,6.35,0,0,1,3.92.9,3.29,3.29,0,0,1,1.09,2.7,53.2,53.2,0,0,1-1.41,6.93q-1.28,4.75-2.05,8.6-2.57,13.48-2.57,18a8,8,0,0,0,.64,3.79,2.2,2.2,0,0,0,2.05,1.09q1.93,0,4.81-3.85a56.59,56.59,0,0,0,6.16-11.68,155.91,155.91,0,0,0,6.35-19.26,10.1,10.1,0,0,1,3.15-5.52q2.12-1.67,6.36-1.67a8.49,8.49,0,0,1,4.11.71,2.83,2.83,0,0,1,1.16,2.63q0,3.21-3.21,17.59-3.59,16.44-3.59,20.29a6.13,6.13,0,0,0,1,3.79,3.23,3.23,0,0,0,2.7,1.35q2.57,0,6.1-3.15a103.09,103.09,0,0,0,9.44-10.21,4.51,4.51,0,0,1,3.47-1.8,3,3,0,0,1,2.63,1.54,8,8,0,0,1,1,4.24q0,5.14-2.44,8a56.76,56.76,0,0,1-11.87,11.17,24.9,24.9,0,0,1-14.44,4.37q-6.16,0-9.05-4.75t-2.89-13.35q-2.18,8.73-6.55,13.42t-9.37,4.69Q334.05,285.55,330.39,280.22Z"/><path class="cls-7" d="M389.13,279.77q-4.75-5.78-4.75-15.15a41.73,41.73,0,0,1,4.75-19.45,40.54,40.54,0,0,1,12.65-14.76,28.52,28.52,0,0,1,16.75-5.58q2.82,0,3.79,1.09a9.25,9.25,0,0,1,1.6,3.92,30.27,30.27,0,0,1,5.65-.51q6.29,0,6.29,4.49,0,2.7-1.93,12.84-3,14.76-3,20.54a4.66,4.66,0,0,0,1,3.08,3.1,3.1,0,0,0,2.5,1.16q2.44,0,5.91-3.15a109.75,109.75,0,0,0,9.37-10.21,4.51,4.51,0,0,1,3.47-1.8,3,3,0,0,1,2.63,1.54,8,8,0,0,1,1,4.24q0,5.14-2.44,8a64.75,64.75,0,0,1-11.17,11q-5.91,4.5-11.43,4.49a12,12,0,0,1-7.77-2.89,17.58,17.58,0,0,1-5.33-7.9q-6.68,10.78-16.82,10.78A15.61,15.61,0,0,1,389.13,279.77Zm22.72-10.53a21.64,21.64,0,0,0,3.72-8.86l4.75-23.62a15.56,15.56,0,0,0-10,4,27.25,27.25,0,0,0-7.25,10.33,34.78,34.78,0,0,0-2.7,13.61q0,4,1.6,5.91a5.45,5.45,0,0,0,4.43,1.93Q409.29,272.58,411.85,269.24Z"/><path class="cls-7" d="M506.28,257.81a8,8,0,0,1,1,4.24q0,5.14-2.44,8a54.55,54.55,0,0,1-12.07,11.17,26.45,26.45,0,0,1-15,4.37q-26.19,0-26.19-36.85,0-5.65.39-11.43h-5q-3.85,0-5.2-1.41a6.34,6.34,0,0,1-1.35-4.49q0-7.19,5.78-7.19h7.32a124.82,124.82,0,0,1,6.68-25.81q4.49-11.68,10.85-18.62t13.67-6.93a9.61,9.61,0,0,1,8.47,4.75,21.52,21.52,0,0,1,3.08,11.94q0,19.9-16.69,34.66h14.38a4.07,4.07,0,0,1,3,.9,4.73,4.73,0,0,1,.9,3.34q0,8.86-14.51,8.86H467.57q-.26,6.42-.26,10,0,13.35,3.15,18.74t9.95,5.39a15.32,15.32,0,0,0,9.76-3.34,77.87,77.87,0,0,0,10-10,4.51,4.51,0,0,1,3.47-1.8A3,3,0,0,1,506.28,257.81ZM476.88,190a68.4,68.4,0,0,0-4.49,13.35,178.83,178.83,0,0,0-3.53,18.94,43.84,43.84,0,0,0,11.36-14.7Q484,199.4,484,192.72q0-7.57-2.82-7.57Q479.26,185.15,476.88,190Z"/><path class="cls-7" d="M501.79,278.42q-7-7.13-7-18.81a38.68,38.68,0,0,1,4.11-18.23,31.3,31.3,0,0,1,10.66-12.07,24.9,24.9,0,0,1,13.74-4.24q7.06,0,11,4.17A15,15,0,0,1,538.18,240a16.62,16.62,0,0,1-2.37,9.12,7.14,7.14,0,0,1-6.23,3.72,6.17,6.17,0,0,1-3.92-1.16,3.84,3.84,0,0,1-1.48-3.21,9.49,9.49,0,0,1,.26-2.05q.25-1.16.38-1.67a11.41,11.41,0,0,0,.64-3.6,3.64,3.64,0,0,0-.83-2.57,3.09,3.09,0,0,0-2.37-.9,7.65,7.65,0,0,0-5.52,2.63,18.74,18.74,0,0,0-4.11,7.13,30.31,30.31,0,0,0-1.54,9.89q0,14.89,13,14.89a22.9,22.9,0,0,0,11.36-3.53,46.31,46.31,0,0,0,12-10.59,4.51,4.51,0,0,1,3.47-1.8,3,3,0,0,1,2.63,1.54,8,8,0,0,1,1,4.24,12.44,12.44,0,0,1-2.44,8,41.65,41.65,0,0,1-14.44,11.49,37.4,37.4,0,0,1-16.24,4Q508.78,285.55,501.79,278.42Z"/><path class="cls-7" d="M595.76,227.19q2.12,2.12,2.12,6.23A101.81,101.81,0,0,1,596.47,246q-1.28,7.83-2.05,14.83a143.47,143.47,0,0,0-.77,15.6q0,4.88-2,7t-6.48,2.12q-4.24,0-6.16-2.18t-1.93-6.55a128.71,128.71,0,0,1,1.8-16.95,120.87,120.87,0,0,0,1.54-13.1q0-2.05-1.41-2.05-1.67,0-4.75,4.3a63.17,63.17,0,0,0-6.16,11.36,92.16,92.16,0,0,0-5,14.89q-1.42,6-3.27,8.15T554,285.55a6.44,6.44,0,0,1-5.84-2.89q-1.86-2.89-2.5-8.92T545,256a222.37,222.37,0,0,1,4-41.21q4-21.44,11.94-36t18.94-14.57a11.28,11.28,0,0,1,9.56,5.07q3.66,5.07,3.66,13.16,0,13-7.58,26.9T560.91,241.9q-.39,6.68-.39,13.74A73.72,73.72,0,0,1,570,237.85q5.2-6.87,10.27-9.82a18.8,18.8,0,0,1,9.31-3Q593.64,225.08,595.76,227.19Zm-23.69-43.65a111.86,111.86,0,0,0-5.46,17.85,238,238,0,0,0-4.3,24.46,91.83,91.83,0,0,0,13.16-20.41q5.2-11,5.2-20a17.22,17.22,0,0,0-.9-6.29q-.9-2.18-2.57-2.18Q574.9,176.93,572.08,183.54Z"/><path class="cls-8" d="M22.36,322.54a6.43,6.43,0,0,1-2.42,5.31,10.53,10.53,0,0,1-6.75,1.94,15.83,15.83,0,0,1-7-1.5v-4.9A28.87,28.87,0,0,0,10.41,325a12.59,12.59,0,0,0,3.19.46,4.54,4.54,0,0,0,2.66-.66,2.27,2.27,0,0,0,.93-2,2.18,2.18,0,0,0-.41-1.3,4.57,4.57,0,0,0-1.2-1.1,31.15,31.15,0,0,0-3.22-1.68,15.27,15.27,0,0,1-3.42-2.06,7.73,7.73,0,0,1-1.82-2.3,6.55,6.55,0,0,1-.68-3.06,6.43,6.43,0,0,1,2.24-5.19,9.3,9.3,0,0,1,6.18-1.89,14.58,14.58,0,0,1,3.7.46A25.5,25.5,0,0,1,22.24,306l-1.7,4.1a25,25,0,0,0-3.29-1.14,10.63,10.63,0,0,0-2.56-.32,3.39,3.39,0,0,0-2.3.7,2.3,2.3,0,0,0-.8,1.82,2.25,2.25,0,0,0,.32,1.22,3.56,3.56,0,0,0,1,1,31.73,31.73,0,0,0,3.34,1.74,13.32,13.32,0,0,1,4.78,3.34A6.53,6.53,0,0,1,22.36,322.54Z"/><path class="cls-8" d="M25.54,305.51q0-2.54,2.82-2.54t2.82,2.54a2.47,2.47,0,0,1-.71,1.88,3,3,0,0,1-2.12.67Q25.54,308.06,25.54,305.51ZM31,329.45H25.76v-19H31Z"/><path class="cls-8" d="M52.73,329.45H47.54V318.34a5.6,5.6,0,0,0-.69-3.09,2.42,2.42,0,0,0-2.17-1,3.14,3.14,0,0,0-2.89,1.46,9.6,9.6,0,0,0-.9,4.81v8.95H35.7v-19h4l.7,2.43h.29a5.27,5.27,0,0,1,2.21-2,7.18,7.18,0,0,1,3.32-.74q4.27,0,5.78,2.79h.46a5.14,5.14,0,0,1,2.25-2.06,7.52,7.52,0,0,1,3.36-.73,6.63,6.63,0,0,1,4.89,1.66q1.66,1.66,1.66,5.32v12.4H59.38V318.34a5.6,5.6,0,0,0-.69-3.09,2.42,2.42,0,0,0-2.17-1,3.24,3.24,0,0,0-2.85,1.36,7.72,7.72,0,0,0-.94,4.32Z"/><path class="cls-8" d="M79.66,329.79a6.31,6.31,0,0,1-5.26-2.43h-.27q.27,2.38.27,2.76v7.71H69.21V310.43h4.22l.73,2.47h.24a6,6,0,0,1,5.39-2.82,6.17,6.17,0,0,1,5.27,2.6A12,12,0,0,1,87,319.9a14.27,14.27,0,0,1-.89,5.29,7.42,7.42,0,0,1-2.54,3.42A6.51,6.51,0,0,1,79.66,329.79Zm-1.53-15.57a3.28,3.28,0,0,0-2.81,1.18,6.79,6.79,0,0,0-.92,3.9v.56a8,8,0,0,0,.91,4.39,3.25,3.25,0,0,0,2.88,1.33q3.49,0,3.49-5.75a8.21,8.21,0,0,0-.86-4.21A2.93,2.93,0,0,0,78.13,314.22Z"/><path class="cls-8" d="M95.75,329.45H90.56V303h5.19Z"/><path class="cls-8" d="M109.11,329.79a9.82,9.82,0,0,1-7.18-2.53q-2.59-2.54-2.59-7.18t2.39-7.39a8.51,8.51,0,0,1,6.61-2.61,8.38,8.38,0,0,1,6.28,2.3,8.69,8.69,0,0,1,2.25,6.35v2.52H104.6a5,5,0,0,0,1.31,3.45,4.61,4.61,0,0,0,3.44,1.24,14.26,14.26,0,0,0,3.25-.36,16.27,16.27,0,0,0,3.2-1.14v4a12.19,12.19,0,0,1-2.91,1A18.38,18.38,0,0,1,109.11,329.79Zm-.73-16a3.29,3.29,0,0,0-2.59,1,4.84,4.84,0,0,0-1.07,3H112a4.33,4.33,0,0,0-1-3A3.4,3.4,0,0,0,108.38,313.76Z"/><path class="cls-8" d="M119.65,327a2.85,2.85,0,0,1,.77-2.16,3.1,3.1,0,0,1,2.23-.73,3,3,0,0,1,2.19.75,3.31,3.31,0,0,1,0,4.26,3,3,0,0,1-2.18.77,3,3,0,0,1-2.21-.76A2.83,2.83,0,0,1,119.65,327Z"/><path class="cls-8" d="M145.15,329.45l-6-19.51H139q.32,6,.32,7.94v11.57h-4.71V304.58h7.18l5.89,19h.1l6.24-19h7.18v24.87h-4.92V317.67q0-.83,0-1.92t.23-5.78h-.15L150,329.45Z"/><path class="cls-8" d="M183.65,319.9a10.22,10.22,0,0,1-2.45,7.26,8.88,8.88,0,0,1-6.82,2.62,9.54,9.54,0,0,1-4.83-1.2,8,8,0,0,1-3.22-3.44,11.58,11.58,0,0,1-1.12-5.24q0-4.66,2.43-7.25a8.93,8.93,0,0,1,6.84-2.59,9.6,9.6,0,0,1,4.83,1.19,8,8,0,0,1,3.22,3.42A11.47,11.47,0,0,1,183.65,319.9Zm-13.15,0a8,8,0,0,0,.93,4.27,3.31,3.31,0,0,0,3,1.45,3.26,3.26,0,0,0,3-1.44,8.09,8.09,0,0,0,.91-4.28,7.86,7.86,0,0,0-.92-4.24,3.91,3.91,0,0,0-6,0A7.85,7.85,0,0,0,170.5,319.9Z"/><path class="cls-8" d="M193.26,329.79a6.18,6.18,0,0,1-5.27-2.6,12,12,0,0,1-1.91-7.21q0-4.68,1.95-7.29a6.33,6.33,0,0,1,5.37-2.61,6.21,6.21,0,0,1,5.48,2.79H199a21.16,21.16,0,0,1-.39-3.79V303h5.21v26.47h-4l-1-2.47h-.22A5.94,5.94,0,0,1,193.26,329.79Zm1.82-4.13A3.51,3.51,0,0,0,198,324.5a6.73,6.73,0,0,0,1-3.93V320a7.78,7.78,0,0,0-.94-4.39,3.51,3.51,0,0,0-3.07-1.33,3,3,0,0,0-2.7,1.47,7.85,7.85,0,0,0-1,4.28,7.44,7.44,0,0,0,1,4.21A3.17,3.17,0,0,0,195.08,325.65Z"/><path class="cls-8" d="M222.06,329.45l-.7-2.43h-.27a5.47,5.47,0,0,1-2.36,2,8.07,8.07,0,0,1-3.49.72,6.64,6.64,0,0,1-5.05-1.79,7.22,7.22,0,0,1-1.7-5.16v-12.4h5.19v11.11a5.33,5.33,0,0,0,.73,3.09,2.66,2.66,0,0,0,2.33,1,3.5,3.5,0,0,0,3.15-1.45,9,9,0,0,0,1-4.82v-8.95H226v19Z"/><path class="cls-8" d="M236,329.45h-5.19V303H236Z"/><path class="cls-8" d="M252.81,329.45l-1-2.59h-.14a7.65,7.65,0,0,1-2.7,2.29,8.71,8.71,0,0,1-3.62.64,5.85,5.85,0,0,1-4.31-1.56,6,6,0,0,1-1.57-4.46,5,5,0,0,1,2.12-4.47,12.26,12.26,0,0,1,6.39-1.59l3.3-.1v-.83q0-2.89-3-2.89a13.5,13.5,0,0,0-5.36,1.38l-1.72-3.5a15.46,15.46,0,0,1,7.28-1.72,9.07,9.07,0,0,1,5.87,1.67,6.16,6.16,0,0,1,2,5.07v12.67Zm-1.53-8.81-2,.07a6.42,6.42,0,0,0-3.37.82,2.56,2.56,0,0,0-1.11,2.28q0,2.2,2.52,2.2a4,4,0,0,0,2.88-1,3.64,3.64,0,0,0,1.08-2.76Z"/><path class="cls-8" d="M271.69,310.07a8.34,8.34,0,0,1,1.75.15l-.39,4.87a6,6,0,0,0-1.53-.17,5.5,5.5,0,0,0-3.87,1.28,4.61,4.61,0,0,0-1.39,3.57v9.68h-5.19v-19H265l.77,3.2H266a7.16,7.16,0,0,1,2.39-2.58A5.89,5.89,0,0,1,271.69,310.07Z"/><path class="cls-8" d="M275.47,327a2.85,2.85,0,0,1,.77-2.16,3.1,3.1,0,0,1,2.23-.73,3,3,0,0,1,2.19.75,3.31,3.31,0,0,1,0,4.26,3,3,0,0,1-2.18.77,3,3,0,0,1-2.21-.76A2.83,2.83,0,0,1,275.47,327Z"/><path class="cls-8" d="M342.2,329.45l-1.8-5.92h-9.07l-1.8,5.92h-5.68l8.78-25h6.45l8.81,25Zm-3.06-10.34q-2.5-8-2.82-9.1t-.45-1.67q-.56,2.18-3.22,10.77Z"/><path class="cls-8" d="M357.63,329.79q-8.88,0-8.88-9.75,0-4.85,2.42-7.41t6.92-2.56a13.2,13.2,0,0,1,5.92,1.29l-1.53,4q-1.23-.49-2.28-.81a7.34,7.34,0,0,0-2.11-.31q-4,0-4,5.75,0,5.58,4,5.58a9.23,9.23,0,0,0,2.77-.4,10,10,0,0,0,2.55-1.25v4.44a8.34,8.34,0,0,1-2.54,1.11A14.3,14.3,0,0,1,357.63,329.79Z"/><path class="cls-8" d="M374.85,329.79q-8.88,0-8.88-9.75,0-4.85,2.42-7.41t6.92-2.56a13.2,13.2,0,0,1,5.92,1.29l-1.53,4q-1.23-.49-2.28-.81a7.34,7.34,0,0,0-2.11-.31q-4,0-4,5.75,0,5.58,4,5.58a9.23,9.23,0,0,0,2.77-.4,10,10,0,0,0,2.55-1.25v4.44a8.34,8.34,0,0,1-2.54,1.11A14.3,14.3,0,0,1,374.85,329.79Z"/><path class="cls-8" d="M392.95,329.79a9.82,9.82,0,0,1-7.18-2.53q-2.59-2.54-2.59-7.18t2.39-7.39a8.51,8.51,0,0,1,6.61-2.61,8.38,8.38,0,0,1,6.28,2.3,8.69,8.69,0,0,1,2.25,6.35v2.52H388.44a5,5,0,0,0,1.31,3.45,4.61,4.61,0,0,0,3.44,1.24,14.26,14.26,0,0,0,3.25-.36,16.28,16.28,0,0,0,3.2-1.14v4a12.19,12.19,0,0,1-2.91,1A18.4,18.4,0,0,1,392.95,329.79Zm-.73-16a3.29,3.29,0,0,0-2.59,1,4.83,4.83,0,0,0-1.07,3h7.28a4.33,4.33,0,0,0-1-3A3.4,3.4,0,0,0,392.22,313.76Z"/><path class="cls-8" d="M417.5,323.8a5.24,5.24,0,0,1-2,4.46q-2,1.53-6.08,1.53a19.06,19.06,0,0,1-3.54-.28,13.36,13.36,0,0,1-2.74-.83v-4.29a18,18,0,0,0,3.26,1.14,13.17,13.17,0,0,0,3.19.46q2.82,0,2.82-1.63a1.37,1.37,0,0,0-.37-1,5.45,5.45,0,0,0-1.29-.87q-.92-.48-2.45-1.13a15.35,15.35,0,0,1-3.22-1.7,4.78,4.78,0,0,1-1.5-1.79,5.92,5.92,0,0,1-.47-2.49,4.52,4.52,0,0,1,2-3.92,9.58,9.58,0,0,1,5.57-1.39,15.82,15.82,0,0,1,6.69,1.5l-1.57,3.74q-1.43-.61-2.67-1a8.4,8.4,0,0,0-2.54-.39q-2.3,0-2.3,1.24a1.46,1.46,0,0,0,.74,1.21,20.21,20.21,0,0,0,3.24,1.51,15.11,15.11,0,0,1,3.27,1.68,5,5,0,0,1,1.53,1.8A5.56,5.56,0,0,1,417.5,323.8Z"/><path class="cls-8" d="M434.12,323.8a5.24,5.24,0,0,1-2,4.46q-2,1.53-6.08,1.53a19.06,19.06,0,0,1-3.54-.28,13.36,13.36,0,0,1-2.74-.83v-4.29a18,18,0,0,0,3.26,1.14,13.17,13.17,0,0,0,3.19.46q2.82,0,2.82-1.63a1.37,1.37,0,0,0-.37-1,5.45,5.45,0,0,0-1.29-.87q-.92-.48-2.45-1.13a15.35,15.35,0,0,1-3.22-1.7,4.78,4.78,0,0,1-1.5-1.79,5.92,5.92,0,0,1-.47-2.49,4.52,4.52,0,0,1,2-3.92,9.58,9.58,0,0,1,5.57-1.39,15.82,15.82,0,0,1,6.69,1.5l-1.57,3.74q-1.43-.61-2.67-1a8.4,8.4,0,0,0-2.54-.39q-2.3,0-2.3,1.24a1.46,1.46,0,0,0,.74,1.21,20.21,20.21,0,0,0,3.24,1.51,15.11,15.11,0,0,1,3.27,1.68,5,5,0,0,1,1.53,1.8A5.56,5.56,0,0,1,434.12,323.8Z"/><path class="cls-8" d="M437.25,305.51q0-2.54,2.82-2.54t2.82,2.54a2.47,2.47,0,0,1-.71,1.88,3,3,0,0,1-2.12.67Q437.25,308.06,437.25,305.51Zm5.41,23.94h-5.19v-19h5.19Z"/><path class="cls-8" d="M458,310.07a6.15,6.15,0,0,1,5.27,2.63,12.06,12.06,0,0,1,1.9,7.2q0,4.71-2,7.3a6.86,6.86,0,0,1-10.61.15h-.36l-.87,2.09h-4V303h5.19v6.16q0,1.17-.2,3.76h.2A6,6,0,0,1,458,310.07Zm-1.67,4.15a3.28,3.28,0,0,0-2.81,1.18,6.79,6.79,0,0,0-.92,3.9v.56a8,8,0,0,0,.91,4.39,3.25,3.25,0,0,0,2.88,1.33,2.89,2.89,0,0,0,2.54-1.47,8,8,0,0,0,.94-4.28,7.55,7.55,0,0,0-1-4.21A3,3,0,0,0,456.32,314.22Z"/><path class="cls-8" d="M473.95,329.45h-5.19V303h5.19Z"/><path class="cls-8" d="M487.3,329.79a9.82,9.82,0,0,1-7.18-2.53q-2.59-2.54-2.59-7.18t2.39-7.39a8.51,8.51,0,0,1,6.61-2.61,8.38,8.38,0,0,1,6.28,2.3,8.69,8.69,0,0,1,2.25,6.35v2.52H482.79a5,5,0,0,0,1.31,3.45,4.61,4.61,0,0,0,3.44,1.24,14.25,14.25,0,0,0,3.25-.36,16.27,16.27,0,0,0,3.2-1.14v4a12.2,12.2,0,0,1-2.91,1A18.39,18.39,0,0,1,487.3,329.79Zm-.73-16a3.29,3.29,0,0,0-2.59,1,4.85,4.85,0,0,0-1.07,3h7.28a4.32,4.32,0,0,0-1-3A3.4,3.4,0,0,0,486.57,313.76Z"/><path class="cls-8" d="M497.85,327a2.85,2.85,0,0,1,.77-2.16,3.1,3.1,0,0,1,2.23-.73,3,3,0,0,1,2.19.75,3.31,3.31,0,0,1,0,4.26,3,3,0,0,1-2.18.77,3.05,3.05,0,0,1-2.21-.76A2.83,2.83,0,0,1,497.85,327Z"/><path class="cls-7" d="M271.41,163.59c2.42-.39-.92-3.51-.45-4.25a3,3,0,0,1,1-1c2.08-1,4.16,4.16,6.24,6.24s5.2,1,4.16,1-6.24-7.28-7.28-9.36-5.2-4.16-7.28-1,2.08,7.28,2.08,7.28S270.85,163.68,271.41,163.59Z"/><path class="cls-7" d="M287.41,165.59c2,2,4-2,5-2s0,2,2,0-1-6-2-3S287.41,165.59,287.41,165.59Z"/><path class="cls-7" d="M275.35,152.09a21.16,21.16,0,0,1,2.62,1.7c2.84,2,6.83,4.82,10.38,4.82a5.55,5.55,0,0,0,2.8-.72,1.5,1.5,0,0,0-1.49-2.6c-2.42,1.38-4.26,2.3-10-3.95-1.91-2.09-3.37-2.35-4.44-2.24a1.5,1.5,0,0,0,.09,3Z"/><path class="cls-7" d="M304.74,160.62c-3.38-3.44-5.49-9.34-3.57-22.27,2.31-6,5.17-12.25,5-14.43a7,7,0,0,0,.25-1.33.71.71,0,0,0-.16-.39c7.1-1.86,18.44-8.82,24.16-18.61,11.17-19.1,3-42.68-10.13-71.51-10-21.93-18.44-27.88-23.78-29a3.22,3.22,0,0,0-3.09,1.05,4.35,4.35,0,0,0-.83,4.19c4.38,13.51,4.51,18.78,3.93,19.82a2.48,2.48,0,0,1-.74-.32,45.5,45.5,0,0,1-3.19-4.52c-5.17-7.82-7.68-11.15-10-10.21-1.9.76-1.83,3.5-1.1,7.67,1,6-2.78,12.12-6.17,16.22a53.36,53.36,0,0,1-10,9.24,1.1,1.1,0,0,1-1.65-1.3c2.46-5.89,2.89-12.46,1.8-14.3a1.77,1.77,0,0,0-1.75-.93c-1.21.13-1.78,1.37-2.17,2.56-1.35,4.11-12.33,6-29,8.79-4.14.7-18.06,1.65-23.11,2.56-24.89,4.5-39.12,26.17-55,50-1.47,2.21-28.62,39.49-30.69,71.53-.07,1-.24,3-.4,5.38-6.94,0-12.28.66-14.24-1-4.24-3.61-2.5,6.29.32,8.1a13.21,13.21,0,0,0,1.84,1c-9.74,4.48-18.84,10.15-18.84,12v5c0,1,1,1,4.77-1.23,2.25-1.33,11.93-8.85,27.23-10.77,8-1,22.2.86,28,5,1.87,1.34,7,5,12,16,0,0,6.57.28,7,0,1.15-.77-.08-3.61-4-10a57.71,57.71,0,0,0-15-15,13.82,13.82,0,0,1-1.15-.89l.15-.11a40.73,40.73,0,0,0-13.92-6.47c-.05-1.68,0-3-.08-3.53-2-23.44,20.85-60.53,30-77,10-18,31-40,51-40,17.7,0,19.58-4.45,32.23-7.78,2.3-.61,3.18.58,1.88,2.58a19.62,19.62,0,0,1-2.62,3.2c-2,2,5.55,6.61,14,5,10.5-2,18.5-10,21.5-22,.88-3.51,6-1,8,2,2.4,3.6,4,5,9,3,.93-.37,8.5-1,0-20-.22-.5,5-.89,15,21,12.68,27.89,12.85,41,2.21,59.2-5.75,9.83-11.36,12.95-17.21,13.8-5.47.8-12.9-5.37-20-12-16.28-15.2-31-17.08-37-18-8.82-1.35-36.21,17.1-46.5,46-3.22,9-3.81,15.22-.5,18,4.21,3.53,6,4,11,3,.46-.09,9.54-3.29,2.5,2a123.74,123.74,0,0,1-11.19,7.83.42.42,0,0,0-.18.51c4.12,10.54,15.72,5.15,20.37,1.66,4-3,1.5,3-2.5,6-2,1.51-6.75,4.61-6.5,6a4.57,4.57,0,0,0,2,3c3,2,9.72,1.78,12.5-1,1-1,.59,4.31-5.6,7.79-.25.14,1,5.45,3.6,7.21,6,4,15.07,3.4,18-1a16.14,16.14,0,0,1,2-2.42.44.44,0,0,1,.7.46c-1.68,5.13-1.38,8.34,4.31,10,4.9,1.4,7.53-4.51,9-6,2.68-2.71,2,.69,2,2,0,7,0,7,5,7,6,0,4.67-8,9-8a3.56,3.56,0,0,1,3,2.26v.06c.22,1.12.9,4.4,3.2,4.45a3,3,0,0,0,2.72-2.41c.13-.52,1-5.72,2-7.23a.41.41,0,0,1,.26-.18c4.89-1,4.93,9.9,13.69,8.07a2.34,2.34,0,0,0,1.77-2.76c-.35-1.71-.46-3.27,1.36-3.27,0,0,4.79.75,8,0,.26-.06,2.4-2.77,1-8-1.25-4.66,2.86,1.29,6,0,.64-.26.23-4.08.53-5.57a.82.82,0,0,1,1.59-.09c.28.86.6,1.87.94,3.07A33.14,33.14,0,0,1,319,203a1.09,1.09,0,0,0,.48,1.42l.73.39a1.07,1.07,0,0,0,1.56-.59c1.23-3.52,10.91-9.57,8.48-23C327.93,162,307.61,160.79,304.74,160.62Zm-9.84-26.53a2.56,2.56,0,1,1-2,2.5A2.29,2.29,0,0,1,294.91,134.09ZM315,176.53s-3.56-4.94-8.56-2.94c-.8.32.93,10.45.44,10.94s-3.35-.35-4.44-.94c-1.26-.68-3.87-2-5-2s0,10-1.53,10.09-3.57-4.19-7.47-8.09c-1.86-1.86-3.53-1.3-4.74-1a.41.41,0,0,0-.32.31l-1.11,4.74c-.33,1.43-2.83,1-3.83-1s-2.8-4-5-4c-1,0-4,9-7,10-.49.16-.94-2.93-1-4-.21-3.81-1.84-6.88-6.7-7a.42.42,0,0,0-.4.27,43.35,43.35,0,0,1-1.72,4c-.66,1.24-3.54,3.84-5.2,3.28s-1.28-4.09-1.05-6.69a16.18,16.18,0,0,0,.05-4.19c-.37-1.84-1-3.75-2.61-4-1.83-.32-3,1.57-4.15,3.56-2.21,3.68-11.21,8.77-14,5.28-.35-.44,2-3.79,2.77-4.51a11.49,11.49,0,0,0,1.78-14l-.24-.39a1.1,1.1,0,0,0-1.64-.28l-.35.29c-3.76,3.11-5.54,2.36-5.54,2.36a34.24,34.24,0,0,1,2.74-4.77,9.46,9.46,0,0,0,1-9.46c-.78-1.47-1.74-1.69-2.25-1.69s-.82.19-1.89,1c-2,1.48-6.82,5.13-12.29,6.88a1.11,1.11,0,0,1-1-2c1.77-1.23,3.59-2.43,4.76-3.2,1.39-.91,2.58-1.7,3.28-2.21,5.7-4.18,4-9.67,2.33-12l-.79-1.08-1.17.66c-2.77,1.57-11.41,5.46-14.61,2.77-2.14-1.8-1.87-6.87.76-14.27,9.57-26.87,34.51-35.65,42.36-34.44,5.67.86,17.52,4.5,33.2,19.16,6.48,6.05,12.59,10,18.16,10.65-.81,2.7-1.95,8-10.63,8-11,0-37-20-51-20-11.07,0-18.39,9.38-21,13.3a3.08,3.08,0,0,0,.13,3.59c4.63,5.84,9.45-7.13,16.83-9.9,2-.75,5.83-1.39,13,1-3,2-5.48,5.13-5.48,8.5,0,5.51,5,13,10,13a11.87,11.87,0,0,0,12.5-11.5,8.72,8.72,0,0,0-.26-2.05,65.58,65.58,0,0,0,21.37,6.33,73.38,73.38,0,0,1,3.33,10.61c1.56,7.11,2.44,2.14,2.44-.71,0-.19,0-.39,0-.59a1.62,1.62,0,0,0,1.11.42,1.8,1.8,0,0,1,1.14.56c.16,2.57.5,6.78,1.12,11.2,1.26,9,3.11,14.83,5.51,17.43-3.93,2.3-9.73,4.31-18.27,4.31-20,0-39-26-39-26-1-1-1,0-1,0s1,3,0,5a4.9,4.9,0,0,0-.5,3.5s6.23,7.6,10,10c5.5,3.5,16,12,32,12,13.87,0,22.48-9,25.17-12.07,2-.8,5.75,1.23,5.82,7.89,0,.15-.06.3-.09.44Zm-54.56-48.44c0,2.89-2,5.25-4.5,5.25s-4.5-2.36-4.5-5.25,2-5.25,4.5-5.25S260.41,125.2,260.41,128.09Z"/><path class="cls-7" d="M412.52,188.69c-.63-2.08-3.95-6.54-9.44-5.14-.71.18,4.57-8.08-1.56-14.33-1.38-1.4-4.26-2.53-7.54-2.88a2.15,2.15,0,0,1-1.88-2.8c.88-2.49,1-6.51-3.88-10.94-2.26-2-7.23-2.7-11.19-2.09-1.85.29-3.77.93-3.55-.89a11.12,11.12,0,0,1,3.21-7.13c.77-.83,12.18-18.27,13.19-21.59a39.9,39.9,0,0,0,5.19-13q1.25-6.44-1-11.07a9.49,9.49,0,0,0-7-5.56q-9-1.76-17.77,8.59A81,81,0,0,0,357.62,118c-4.67,8.27-11.76,22-13.24,24.1s-2.43,3.37-3.23,4.35c-1.86-.82-2.69-1.16-6.18-1.27a12.45,12.45,0,0,0-9.94,3c-.41.36-4.91,8,3.59,16,4.78,4.45,1.15,12.52,1.15,12.52l-11.37,27.94s1.19,1.49,7-1c6.72-2.88,10-23.18,15.33-31.08l1.13-.25.08,0,12.94,6.86c1.34,2.3,2.21,9.16,8.37,6.78,1.18-.46,1.06-.82.92.41-.45,4.11-.76,6.23,2.18,8.9.94.85,3.85,1.29,6.21,1,3.73-.4-.13,1.85,2.74,5.92,1.73,2.46,6.33,4.29,8.64,4.42.42,0,16.64,1.23,23.79-4.14C410.24,200.61,413.58,192.2,412.52,188.69Zm-75.39-24.1c-9.73-6-7.31-10.23-7.15-11.31,1.6-2.46,3.42-2.69,7.42-2.69,6,0,13.76,8.18,18.44,14.44v0h0c2.35,3.15,3.92,5.8,4.07,6.68-.36,3.86-1.49,5.09-2.06,5.33Zm66.6,31.35a58,58,0,0,1-10.38,2.92c-7.66,1.51-11,1.39-12.44,1.14-.52-.1-1.78-1.73-1.22-2.42,3.55-4.44,6.36-4.9,5.33-7.1-1-2-9.36.6-12.43,0-.73-.14-4.65-3.3-3-5.51,1.13-1.51,8.1-7.51,7.74-8.07-1.33-2.08-9.79,7.06-16,1.42,1-1.43,2.81-2.95,3.05-5.72a10.34,10.34,0,0,0-1-4c-1-2-10.61-16.55-13-19-.17-1.15-.5.2,0-1,1.32-3.16,6.51-11.66,11.91-20.12,0,0,12.86-20.67,15.09-23.88s4.23-3.88,5.49-3.63q1.37.27,1.76,2.15a13.63,13.63,0,0,1-.24,5.16c-.93,4.77-24,42.36-24,46.33,0,2,2,9,5.26,5.7,2.73-2.77,8.3-4.19,11.84-3.69s4.5.38,7.8,4c5.27,5.73-6.5,11.27-3.84,13.93,0,0,.89.89,3.88-.1.18-.06,4.28-2.22,7.21-.92,3.51,1.56,5.57,4.48,4.53,8.07s-5.83,4.13-4.89,6.55,1.68-.83,8.52-.1C407.38,188.7,406.12,194.13,403.74,195.94Z"/><ellipse class="cls-9" cx="237.41" cy="142.09" rx="5.5" ry="7" transform="translate(-9.08 267.77) rotate(-57.92)"/></svg>